<svg xmlns="http://www.w3.org/2000/svg" width="1060" height="751" font-family="sans-serif"><rect width="1060" height="751" fill="white"/><text x="530" y="20" font-size="13" font-weight="bold" text-anchor="middle">moog: sweep at 5 speeds (instantaneous freq, RESO=100, 60Hz smoother, E1 saw MIX)</text><rect x="78" y="56" width="862" height="187" fill="#fafafa" stroke="#ccc"/><line x1="78" y1="243" x2="940" y2="243" stroke="#eee"/><text x="72" y="246" font-size="9" text-anchor="end" fill="#555">-9.9</text><line x1="78" y1="196.25" x2="940" y2="196.25" stroke="#eee"/><text x="72" y="199.25" font-size="9" text-anchor="end" fill="#555">26</text><line x1="78" y1="149.5" x2="940" y2="149.5" stroke="#eee"/><text x="72" y="152.5" font-size="9" text-anchor="end" fill="#555">62</text><line x1="78" y1="102.75" x2="940" y2="102.75" stroke="#eee"/><text x="72" y="105.75" font-size="9" text-anchor="end" fill="#555">98</text><line x1="78" y1="56" x2="940" y2="56" stroke="#eee"/><text x="72" y="59" font-size="9" text-anchor="end" fill="#555">134</text><text x="78" y="257" font-size="9" text-anchor="middle" fill="#555">0</text><text x="164.2" y="257" font-size="9" text-anchor="middle" fill="#555">10</text><text x="250.4" y="257" font-size="9" text-anchor="middle" fill="#555">20</text><text x="336.59999999999997" y="257" font-size="9" text-anchor="middle" fill="#555">30</text><text x="422.8" y="257" font-size="9" text-anchor="middle" fill="#555">40</text><text x="509" y="257" font-size="9" text-anchor="middle" fill="#555">50</text><text x="595.1999999999999" y="257" font-size="9" text-anchor="middle" fill="#555">60</text><text x="681.4" y="257" font-size="9" text-anchor="middle" fill="#555">70</text><text x="767.6" y="257" font-size="9" text-anchor="middle" fill="#555">80</text><text x="853.8000000000001" y="257" font-size="9" text-anchor="middle" fill="#555">90</text><text x="940" y="257" font-size="9" text-anchor="middle" fill="#555">100</text><polyline points="95.2,230.1 103.9,230.1 112.5,230.1 121.1,230.1 129.7,230.1 138.3,230.1 147.0,230.1 155.6,230.1 164.2,230.1 172.8,230.1 181.4,230.1 190.1,230.1 198.7,230.1 207.3,230.1 215.9,230.1 224.5,230.1 233.2,230.1 241.8,230.1 250.4,230.1 259.0,230.1 267.6,230.1 276.3,230.1 284.9,230.1 293.5,230.1 302.1,230.1 310.7,230.1 319.4,230.1 328.0,230.1 336.6,230.1 345.2,164.2 353.8,230.1 362.5,230.1 371.1,230.1 379.7,158.6 388.3,230.1 396.9,156.3 405.6,154.3 414.2,152.5 422.8,230.1 431.4,153.7 440.0,149.0 448.7,147.4 457.3,146.0 465.9,144.7 474.5,143.5 483.1,141.8 491.8,140.9 500.4,139.3 509.0,137.7 517.6,136.3 526.2,134.7 534.9,133.9 543.5,132.4 552.1,131.0 560.7,129.6 569.3,128.4 578.0,126.6 586.6,125.5 595.2,123.9 603.8,122.7 612.4,121.3 621.1,119.8 629.7,118.8 638.3,117.4 646.9,115.8 655.5,114.3 664.2,112.9 672.8,111.4 681.4,110.2 690.0,108.9 698.6,107.6 707.3,106.1 715.9,104.8 724.5,103.3 733.1,102.0 741.7,100.7 750.4,99.3 759.0,98.0 767.6,96.7 776.2,95.4 784.8,94.0 793.5,92.6 802.1,91.3 810.7,90.0 819.3,88.6 827.9,87.3 836.6,86.0 845.2,84.6 853.8,83.3 862.4,81.9 871.0,80.6 879.7,79.2 888.3,77.9 896.9,76.5 905.5,75.2 914.1,73.8 922.8,72.4 931.4,71.1 940.0,70.4" fill="none" stroke="#d62728" stroke-width="1.3" opacity="0.9"/><polyline points="95.2,230.1 103.9,230.1 112.5,230.1 121.1,230.1 129.7,230.1 138.3,230.1 147.0,230.1 155.6,230.1 164.2,230.1 172.8,230.1 181.4,230.1 190.1,230.1 198.7,230.1 207.3,230.1 215.9,230.1 224.5,230.1 233.2,230.1 241.8,230.1 250.4,230.1 259.0,230.1 267.6,230.1 276.3,230.1 284.9,230.1 293.5,230.1 302.1,170.0 310.7,168.6 319.4,230.1 328.0,230.1 336.6,230.1 345.2,230.1 353.8,161.4 362.5,160.4 371.1,159.5 379.7,162.9 388.3,156.1 396.9,155.0 405.6,154.7 414.2,152.3 422.8,151.1 431.4,149.8 440.0,150.2 448.7,146.8 457.3,145.6 465.9,145.1 474.5,142.6 483.1,141.2 491.8,140.6 500.4,139.2 509.0,137.1 517.6,135.6 526.2,134.6 534.9,133.1 543.5,131.5 552.1,130.3 560.7,128.9 569.3,127.3 578.0,126.0 586.6,124.8 595.2,123.2 603.8,121.8 612.4,120.6 621.1,119.2 629.7,117.7 638.3,116.4 646.9,115.0 655.5,113.6 664.2,112.2 672.8,111.0 681.4,109.6 690.0,108.1 698.6,106.8 707.3,105.4 715.9,104.1 724.5,102.7 733.1,101.4 741.7,100.0 750.4,98.7 759.0,97.4 767.6,96.0 776.2,94.6 784.8,93.3 793.5,92.0 802.1,90.7 810.7,89.3 819.3,88.0 827.9,86.7 836.6,85.3 845.2,83.9 853.8,82.6 862.4,81.3 871.0,79.9 879.7,78.6 888.3,77.2 896.9,75.8 905.5,74.5 914.1,73.1 922.8,71.7 931.4,70.3 940.0,69.4" fill="none" stroke="#ff7f0e" stroke-width="1.3" opacity="0.9"/><polyline points="95.2,230.1 103.9,230.1 112.5,230.1 121.1,230.1 129.7,230.1 138.3,230.1 147.0,230.1 155.6,192.8 164.2,230.1 172.8,230.1 181.4,191.0 190.1,230.1 198.7,230.1 207.3,230.1 215.9,230.1 224.5,230.1 233.2,188.9 241.8,178.7 250.4,179.2 259.0,176.9 267.6,174.9 276.3,177.3 284.9,175.5 293.5,170.7 302.1,170.6 310.7,168.5 319.4,167.6 328.0,167.5 336.6,164.5 345.2,163.4 353.8,162.6 362.5,159.7 371.1,159.7 379.7,157.7 388.3,156.6 396.9,155.7 405.6,153.4 414.2,152.8 422.8,151.0 431.4,149.7 440.0,148.1 448.7,146.6 457.3,145.4 465.9,143.9 474.5,142.5 483.1,141.1 491.8,139.8 500.4,138.4 509.0,137.0 517.6,135.4 526.2,134.2 534.9,132.8 543.5,131.4 552.1,129.9 560.7,128.6 569.3,127.2 578.0,125.8 586.6,124.3 595.2,123.0 603.8,121.7 612.4,120.3 621.1,118.8 629.7,117.6 638.3,116.2 646.9,114.8 655.5,113.4 664.2,112.0 672.8,110.6 681.4,109.2 690.0,107.9 698.6,106.5 707.3,105.2 715.9,103.8 724.5,102.4 733.1,101.1 741.7,99.7 750.4,98.4 759.0,97.1 767.6,95.7 776.2,94.4 784.8,93.0 793.5,91.7 802.1,90.4 810.7,89.0 819.3,87.7 827.9,86.3 836.6,85.0 845.2,83.7 853.8,82.3 862.4,81.0 871.0,79.6 879.7,78.3 888.3,76.9 896.9,75.6 905.5,74.2 914.1,72.8 922.8,71.4 931.4,70.0 940.0,69.1" fill="none" stroke="#2ca02c" stroke-width="1.3" opacity="0.9"/><polyline points="95.2,230.1 103.9,202.0 112.5,202.5 121.1,200.5 129.7,196.2 138.3,194.1 147.0,192.3 155.6,192.4 164.2,192.4 172.8,192.3 181.4,192.1 190.1,192.0 198.7,191.9 207.3,187.1 215.9,186.2 224.5,181.1 233.2,182.2 241.8,181.8 250.4,178.6 259.0,177.1 267.6,176.2 276.3,177.2 284.9,173.9 293.5,172.5 302.1,170.1 310.7,168.9 319.4,167.9 328.0,167.0 336.6,164.3 345.2,164.2 353.8,162.9 362.5,161.1 371.1,159.0 379.7,157.5 388.3,156.5 396.9,155.2 405.6,153.5 414.2,152.2 422.8,150.8 431.4,149.4 440.0,148.1 448.7,146.8 457.3,145.3 465.9,143.9 474.5,142.5 483.1,140.9 491.8,139.6 500.4,138.2 509.0,136.8 517.6,135.4 526.2,134.0 534.9,132.5 543.5,131.1 552.1,129.7 560.7,128.4 569.3,127.0 578.0,125.6 586.6,124.2 595.2,122.9 603.8,121.4 612.4,120.0 621.1,118.6 629.7,117.3 638.3,115.9 646.9,114.5 655.5,113.1 664.2,111.8 672.8,110.4 681.4,109.0 690.0,107.7 698.6,106.3 707.3,104.9 715.9,103.6 724.5,102.2 733.1,100.9 741.7,99.5 750.4,98.2 759.0,96.8 767.6,95.5 776.2,94.1 784.8,92.8 793.5,91.5 802.1,90.1 810.7,88.8 819.3,87.5 827.9,86.1 836.6,84.8 845.2,83.4 853.8,82.1 862.4,80.8 871.0,79.4 879.7,78.1 888.3,76.7 896.9,75.3 905.5,74.0 914.1,72.6 922.8,71.2 931.4,69.7 940.0,68.9" fill="none" stroke="#1f77b4" stroke-width="1.3" opacity="0.9"/><polyline points="95.2,205.4 103.9,202.9 112.5,200.1 121.1,200.9 129.7,200.8 138.3,195.1 147.0,193.4 155.6,193.0 164.2,193.0 172.8,192.9 181.4,192.9 190.1,192.8 198.7,193.7 207.3,187.4 215.9,185.0 224.5,183.4 233.2,182.5 241.8,181.2 250.4,178.7 259.0,177.5 267.6,177.4 276.3,174.9 284.9,173.5 293.5,171.9 302.1,170.8 310.7,169.2 319.4,168.0 328.0,166.8 336.6,165.0 345.2,163.6 353.8,161.9 362.5,160.9 371.1,159.2 379.7,157.9 388.3,156.5 396.9,155.2 405.6,153.6 414.2,152.4 422.8,150.8 431.4,149.4 440.0,148.0 448.7,146.6 457.3,145.2 465.9,143.8 474.5,142.4 483.1,141.0 491.8,139.6 500.4,138.2 509.0,136.8 517.6,135.3 526.2,133.9 534.9,132.5 543.5,131.2 552.1,129.8 560.7,128.4 569.3,127.0 578.0,125.6 586.6,124.2 595.2,122.8 603.8,121.4 612.4,120.1 621.1,118.7 629.7,117.3 638.3,115.9 646.9,114.5 655.5,113.2 664.2,111.8 672.8,110.4 681.4,109.0 690.0,107.6 698.6,106.3 707.3,104.9 715.9,103.6 724.5,102.2 733.1,100.9 741.7,99.5 750.4,98.2 759.0,96.8 767.6,95.5 776.2,94.1 784.8,92.8 793.5,91.5 802.1,90.1 810.7,88.8 819.3,87.5 827.9,86.1 836.6,84.8 845.2,83.4 853.8,82.1 862.4,80.8 871.0,79.4 879.7,78.1 888.3,76.7 896.9,75.3 905.5,74.0 914.1,72.6 922.8,71.2 931.4,69.7 940.0,68.9" fill="none" stroke="#9467bd" stroke-width="1.3" opacity="0.9"/><line x1="950" y1="60" x2="968" y2="60" stroke="#d62728" stroke-width="2.5"/><text x="972" y="63" font-size="9" fill="#333">0.3s byao!</text><line x1="950" y1="75" x2="968" y2="75" stroke="#ff7f0e" stroke-width="2.5"/><text x="972" y="78" font-size="9" fill="#333">0.7s</text><line x1="950" y1="90" x2="968" y2="90" stroke="#2ca02c" stroke-width="2.5"/><text x="972" y="93" font-size="9" fill="#333">1.5s</text><line x1="950" y1="105" x2="968" y2="105" stroke="#1f77b4" stroke-width="2.5"/><text x="972" y="108" font-size="9" fill="#333">3s</text><line x1="950" y1="120" x2="968" y2="120" stroke="#9467bd" stroke-width="2.5"/><text x="972" y="123" font-size="9" fill="#333">6s</text><text x="78" y="47" font-size="11" font-weight="bold" fill="#222">1. Pitch (semitone) vs CUTOFF</text><text x="13" y="149.5" font-size="9" fill="#666" transform="rotate(-90 13 149.5)" text-anchor="middle">MIDI note</text><rect x="78" y="291" width="862" height="187" fill="#fafafa" stroke="#ccc"/><line x1="78" y1="478" x2="940" y2="478" stroke="#eee"/><text x="72" y="481" font-size="9" text-anchor="end" fill="#555">-39</text><line x1="78" y1="431.25" x2="940" y2="431.25" stroke="#eee"/><text x="72" y="434.25" font-size="9" text-anchor="end" fill="#555">-29</text><line x1="78" y1="384.5" x2="940" y2="384.5" stroke="#eee"/><text x="72" y="387.5" font-size="9" text-anchor="end" fill="#555">-20</text><line x1="78" y1="337.75" x2="940" y2="337.75" stroke="#eee"/><text x="72" y="340.75" font-size="9" text-anchor="end" fill="#555">-10</text><line x1="78" y1="291" x2="940" y2="291" stroke="#eee"/><text x="72" y="294" font-size="9" text-anchor="end" fill="#555">-0.34</text><text x="78" y="492" font-size="9" text-anchor="middle" fill="#555">0</text><text x="164.2" y="492" font-size="9" text-anchor="middle" fill="#555">10</text><text x="250.4" y="492" font-size="9" text-anchor="middle" fill="#555">20</text><text x="336.59999999999997" y="492" font-size="9" text-anchor="middle" fill="#555">30</text><text x="422.8" y="492" font-size="9" text-anchor="middle" fill="#555">40</text><text x="509" y="492" font-size="9" text-anchor="middle" fill="#555">50</text><text x="595.1999999999999" y="492" font-size="9" text-anchor="middle" fill="#555">60</text><text x="681.4" y="492" font-size="9" text-anchor="middle" fill="#555">70</text><text x="767.6" y="492" font-size="9" text-anchor="middle" fill="#555">80</text><text x="853.8000000000001" y="492" font-size="9" text-anchor="middle" fill="#555">90</text><text x="940" y="492" font-size="9" text-anchor="middle" fill="#555">100</text><polyline points="95.2,465.1 103.9,434.2 112.5,415.1 121.1,405.8 129.7,404.8 138.3,404.7 147.0,392.3 155.6,384.5 164.2,383.5 172.8,377.5 181.4,372.5 190.1,373.4 198.7,368.9 207.3,362.1 215.9,363.8 224.5,359.1 233.2,353.6 241.8,359.4 250.4,354.9 259.0,359.1 267.6,365.8 276.3,362.3 284.9,366.2 293.5,354.0 302.1,353.1 310.7,353.8 319.4,352.3 328.0,354.8 336.6,355.7 345.2,351.1 353.8,345.7 362.5,347.6 371.1,344.4 379.7,345.2 388.3,346.8 396.9,346.1 405.6,344.6 414.2,343.4 422.8,341.1 431.4,338.4 440.0,337.2 448.7,337.7 457.3,336.7 465.9,336.2 474.5,335.3 483.1,334.7 491.8,333.6 500.4,333.0 509.0,331.1 517.6,329.6 526.2,328.3 534.9,326.4 543.5,325.3 552.1,324.6 560.7,323.0 569.3,322.2 578.0,321.1 586.6,320.6 595.2,319.6 603.8,318.6 612.4,317.4 621.1,316.9 629.7,316.3 638.3,315.4 646.9,314.3 655.5,313.3 664.2,312.2 672.8,311.4 681.4,310.7 690.0,310.1 698.6,309.4 707.3,309.0 715.9,308.4 724.5,307.7 733.1,307.2 741.7,306.6 750.4,306.1 759.0,305.9 767.6,305.8 776.2,305.5 784.8,305.1 793.5,304.7 802.1,304.2 810.7,304.1 819.3,304.0 827.9,304.2 836.6,304.5 845.2,304.6 853.8,304.6 862.4,304.4 871.0,304.2 879.7,304.4 888.3,304.9 896.9,305.9 905.5,307.1 914.1,308.5 922.8,310.1 931.4,310.9 940.0,311.9" fill="none" stroke="#d62728" stroke-width="1.3" opacity="0.9"/><polyline points="95.2,411.4 103.9,408.3 112.5,395.7 121.1,392.0 129.7,389.2 138.3,388.8 147.0,390.5 155.6,385.0 164.2,387.9 172.8,378.9 181.4,367.9 190.1,366.8 198.7,365.7 207.3,356.7 215.9,355.6 224.5,365.9 233.2,371.6 241.8,373.4 250.4,372.4 259.0,357.9 267.6,354.8 276.3,363.5 284.9,356.0 293.5,351.8 302.1,356.0 310.7,358.7 319.4,355.1 328.0,351.9 336.6,353.4 345.2,349.8 353.8,349.4 362.5,351.7 371.1,349.3 379.7,351.7 388.3,352.7 396.9,345.9 405.6,347.7 414.2,348.6 422.8,343.3 431.4,339.2 440.0,337.9 448.7,338.4 457.3,336.7 465.9,335.7 474.5,335.4 483.1,333.5 491.8,332.3 500.4,332.0 509.0,330.6 517.6,328.7 526.2,326.5 534.9,325.4 543.5,324.8 552.1,324.9 560.7,324.5 569.3,321.8 578.0,320.6 586.6,319.7 595.2,318.7 603.8,317.9 612.4,316.8 621.1,315.9 629.7,315.0 638.3,314.5 646.9,313.9 655.5,312.9 664.2,311.7 672.8,311.4 681.4,310.7 690.0,309.7 698.6,309.3 707.3,308.8 715.9,307.9 724.5,307.3 733.1,307.2 741.7,306.7 750.4,305.9 759.0,305.9 767.6,305.7 776.2,304.9 784.8,304.6 793.5,304.8 802.1,304.6 810.7,304.1 819.3,304.4 827.9,304.5 836.6,303.9 845.2,304.0 853.8,304.7 862.4,304.7 871.0,304.3 879.7,305.3 888.3,306.0 896.9,306.0 905.5,307.1 914.1,309.1 922.8,310.7 931.4,312.8 940.0,314.5" fill="none" stroke="#ff7f0e" stroke-width="1.3" opacity="0.9"/><polyline points="95.2,401.5 103.9,398.4 112.5,407.3 121.1,401.9 129.7,383.6 138.3,374.9 147.0,374.2 155.6,373.5 164.2,367.7 172.8,365.6 181.4,362.8 190.1,358.6 198.7,361.3 207.3,363.5 215.9,373.9 224.5,400.1 233.2,376.1 241.8,368.3 250.4,365.8 259.0,359.9 267.6,359.0 276.3,357.4 284.9,356.0 293.5,359.7 302.1,357.7 310.7,353.6 319.4,355.2 328.0,351.9 336.6,351.7 345.2,358.4 353.8,360.5 362.5,356.5 371.1,348.3 379.7,344.8 388.3,345.0 396.9,343.4 405.6,341.7 414.2,340.9 422.8,342.5 431.4,341.9 440.0,338.7 448.7,337.3 457.3,336.1 465.9,334.8 474.5,334.2 483.1,333.6 491.8,333.0 500.4,331.2 509.0,330.2 517.6,329.0 526.2,326.9 534.9,326.6 543.5,325.5 552.1,323.9 560.7,322.9 569.3,321.6 578.0,321.0 586.6,320.4 595.2,318.8 603.8,317.6 612.4,316.7 621.1,315.9 629.7,315.2 638.3,314.1 646.9,313.2 655.5,312.3 664.2,311.6 672.8,311.0 681.4,310.3 690.0,309.6 698.6,309.1 707.3,308.4 715.9,307.9 724.5,307.4 733.1,306.9 741.7,306.5 750.4,306.0 759.0,305.6 767.6,305.3 776.2,304.9 784.8,304.8 793.5,304.6 802.1,304.4 810.7,304.4 819.3,304.1 827.9,304.1 836.6,304.2 845.2,304.2 853.8,304.5 862.4,304.5 871.0,304.7 879.7,305.4 888.3,305.7 896.9,306.5 905.5,307.6 914.1,309.1 922.8,311.5 931.4,314.0 940.0,315.4" fill="none" stroke="#2ca02c" stroke-width="1.3" opacity="0.9"/><polyline points="95.2,400.6 103.9,392.5 112.5,391.9 121.1,386.3 129.7,378.7 138.3,382.8 147.0,384.4 155.6,373.4 164.2,366.0 172.8,363.2 181.4,360.4 190.1,361.9 198.7,369.9 207.3,381.9 215.9,383.4 224.5,373.7 233.2,373.7 241.8,368.2 250.4,362.4 259.0,360.4 267.6,356.1 276.3,358.3 284.9,362.6 293.5,362.4 302.1,357.3 310.7,352.9 319.4,352.3 328.0,353.4 336.6,355.1 345.2,355.2 353.8,352.5 362.5,351.7 371.1,349.5 379.7,346.1 388.3,344.7 396.9,344.7 405.6,346.5 414.2,344.0 422.8,340.8 431.4,339.0 440.0,338.5 448.7,338.6 457.3,336.5 465.9,335.0 474.5,333.2 483.1,331.9 491.8,330.9 500.4,329.6 509.0,328.8 517.6,327.8 526.2,327.1 534.9,326.1 543.5,324.6 552.1,323.8 560.7,322.7 569.3,321.5 578.0,320.5 586.6,319.6 595.2,318.7 603.8,317.5 612.4,316.6 621.1,315.9 629.7,315.1 638.3,314.1 646.9,313.3 655.5,312.4 664.2,311.7 672.8,311.0 681.4,310.1 690.0,309.5 698.6,309.1 707.3,308.4 715.9,307.8 724.5,307.3 733.1,306.8 741.7,306.3 750.4,305.9 759.0,305.6 767.6,305.3 776.2,305.0 784.8,304.7 793.5,304.5 802.1,304.4 810.7,304.3 819.3,304.2 827.9,304.1 836.6,304.2 845.2,304.3 853.8,304.4 862.4,304.5 871.0,304.8 879.7,305.4 888.3,306.0 896.9,306.6 905.5,307.7 914.1,309.5 922.8,311.9 931.4,314.8 940.0,316.3" fill="none" stroke="#1f77b4" stroke-width="1.3" opacity="0.9"/><polyline points="95.2,392.1 103.9,388.8 112.5,388.7 121.1,388.0 129.7,387.3 138.3,381.2 147.0,374.5 155.6,369.2 164.2,364.1 172.8,361.7 181.4,362.3 190.1,367.7 198.7,378.8 207.3,388.2 215.9,385.7 224.5,376.5 233.2,373.4 241.8,370.5 250.4,363.6 259.0,357.9 267.6,357.4 276.3,362.7 284.9,364.2 293.5,362.6 302.1,358.6 310.7,353.3 319.4,353.0 328.0,355.0 336.6,354.0 345.2,351.3 353.8,348.7 362.5,348.5 371.1,348.8 379.7,346.3 388.3,344.8 396.9,344.4 405.6,342.2 414.2,341.2 422.8,342.1 431.4,340.5 440.0,338.2 448.7,337.1 457.3,335.5 465.9,334.3 474.5,334.0 483.1,333.1 491.8,331.7 500.4,330.6 509.0,328.9 517.6,327.6 526.2,326.8 534.9,325.4 543.5,324.4 552.1,323.4 560.7,322.5 569.3,321.8 578.0,320.7 586.6,319.4 595.2,318.4 603.8,317.5 612.4,316.6 621.1,315.8 629.7,314.8 638.3,313.9 646.9,313.1 655.5,312.3 664.2,311.6 672.8,310.9 681.4,310.2 690.0,309.6 698.6,308.9 707.3,308.3 715.9,307.8 724.5,307.2 733.1,306.7 741.7,306.3 750.4,306.0 759.0,305.6 767.6,305.3 776.2,305.0 784.8,304.8 793.5,304.6 802.1,304.4 810.7,304.3 819.3,304.2 827.9,304.2 836.6,304.2 845.2,304.2 853.8,304.3 862.4,304.6 871.0,304.9 879.7,305.3 888.3,305.9 896.9,306.7 905.5,307.8 914.1,309.4 922.8,311.7 931.4,314.8 940.0,316.9" fill="none" stroke="#9467bd" stroke-width="1.3" opacity="0.9"/><line x1="950" y1="295" x2="968" y2="295" stroke="#d62728" stroke-width="2.5"/><text x="972" y="298" font-size="9" fill="#333">0.3s byao!</text><line x1="950" y1="310" x2="968" y2="310" stroke="#ff7f0e" stroke-width="2.5"/><text x="972" y="313" font-size="9" fill="#333">0.7s</text><line x1="950" y1="325" x2="968" y2="325" stroke="#2ca02c" stroke-width="2.5"/><text x="972" y="328" font-size="9" fill="#333">1.5s</text><line x1="950" y1="340" x2="968" y2="340" stroke="#1f77b4" stroke-width="2.5"/><text x="972" y="343" font-size="9" fill="#333">3s</text><line x1="950" y1="355" x2="968" y2="355" stroke="#9467bd" stroke-width="2.5"/><text x="972" y="358" font-size="9" fill="#333">6s</text><text x="78" y="282" font-size="11" font-weight="bold" fill="#222">2. Loudness (dB) vs CUTOFF</text><text x="13" y="384.5" font-size="9" fill="#666" transform="rotate(-90 13 384.5)" text-anchor="middle">dB</text><rect x="78" y="526" width="862" height="187" fill="#fafafa" stroke="#ccc"/><line x1="78" y1="713" x2="940" y2="713" stroke="#eee"/><text x="72" y="716" font-size="9" text-anchor="end" fill="#555">-852</text><line x1="78" y1="666.25" x2="940" y2="666.25" stroke="#eee"/><text x="72" y="669.25" font-size="9" text-anchor="end" fill="#555">2237</text><line x1="78" y1="619.5" x2="940" y2="619.5" stroke="#eee"/><text x="72" y="622.5" font-size="9" text-anchor="end" fill="#555">5327</text><line x1="78" y1="572.75" x2="940" y2="572.75" stroke="#eee"/><text x="72" y="575.75" font-size="9" text-anchor="end" fill="#555">8417</text><line x1="78" y1="526" x2="940" y2="526" stroke="#eee"/><text x="72" y="529" font-size="9" text-anchor="end" fill="#555">11507</text><text x="78" y="727" font-size="9" text-anchor="middle" fill="#555">0</text><text x="164.2" y="727" font-size="9" text-anchor="middle" fill="#555">10</text><text x="250.4" y="727" font-size="9" text-anchor="middle" fill="#555">20</text><text x="336.59999999999997" y="727" font-size="9" text-anchor="middle" fill="#555">30</text><text x="422.8" y="727" font-size="9" text-anchor="middle" fill="#555">40</text><text x="509" y="727" font-size="9" text-anchor="middle" fill="#555">50</text><text x="595.1999999999999" y="727" font-size="9" text-anchor="middle" fill="#555">60</text><text x="681.4" y="727" font-size="9" text-anchor="middle" fill="#555">70</text><text x="767.6" y="727" font-size="9" text-anchor="middle" fill="#555">80</text><text x="853.8000000000001" y="727" font-size="9" text-anchor="middle" fill="#555">90</text><text x="940" y="727" font-size="9" text-anchor="middle" fill="#555">100</text><polyline points="95.2,700.1 103.9,700.1 112.5,700.1 121.1,700.1 129.7,700.1 138.3,700.1 147.0,700.1 155.6,700.1 164.2,700.1 172.8,700.1 181.4,700.1 190.1,700.1 198.7,700.1 207.3,700.1 215.9,700.1 224.5,700.1 233.2,700.1 241.8,700.1 250.4,700.1 259.0,700.1 267.6,700.1 276.3,700.1 284.9,700.1 293.5,700.1 302.1,700.1 310.7,700.1 319.4,700.1 328.0,700.1 336.6,700.1 345.2,697.8 353.8,700.1 362.5,700.1 371.1,700.1 379.7,697.1 388.3,700.1 396.9,696.8 405.6,696.5 414.2,696.2 422.8,700.1 431.4,696.4 440.0,695.5 448.7,695.2 457.3,694.9 465.9,694.6 474.5,694.3 483.1,693.8 491.8,693.6 500.4,693.1 509.0,692.5 517.6,692.1 526.2,691.5 534.9,691.2 543.5,690.5 552.1,689.9 560.7,689.3 569.3,688.7 578.0,687.7 586.6,687.1 595.2,686.2 603.8,685.4 612.4,684.5 621.1,683.4 629.7,682.6 638.3,681.4 646.9,680.1 655.5,678.7 664.2,677.3 672.8,675.8 681.4,674.4 690.0,672.9 698.6,671.3 707.3,669.4 715.9,667.4 724.5,665.3 733.1,663.1 741.7,660.9 750.4,658.5 759.0,655.9 767.6,653.3 776.2,650.4 784.8,647.2 793.5,644.0 802.1,640.6 810.7,637.0 819.3,633.1 827.9,628.9 836.6,624.8 845.2,620.0 853.8,615.2 862.4,609.9 871.0,604.3 879.7,598.3 888.3,592.1 896.9,585.2 905.5,578.2 914.1,570.7 922.8,562.2 931.4,553.8 940.0,549.2" fill="none" stroke="#d62728" stroke-width="1.3" opacity="0.9"/><polyline points="95.2,700.1 103.9,700.1 112.5,700.1 121.1,700.1 129.7,700.1 138.3,700.1 147.0,700.1 155.6,700.1 164.2,700.1 172.8,700.1 181.4,700.1 190.1,700.1 198.7,700.1 207.3,700.1 215.9,700.1 224.5,700.1 233.2,700.1 241.8,700.1 250.4,700.1 259.0,700.1 267.6,700.1 276.3,700.1 284.9,700.1 293.5,700.1 302.1,698.3 310.7,698.2 319.4,700.1 328.0,700.1 336.6,700.1 345.2,700.1 353.8,697.5 362.5,697.4 371.1,697.2 379.7,697.6 388.3,696.8 396.9,696.6 405.6,696.6 414.2,696.2 422.8,695.9 431.4,695.7 440.0,695.8 448.7,695.1 457.3,694.8 465.9,694.7 474.5,694.0 483.1,693.6 491.8,693.5 500.4,693.0 509.0,692.3 517.6,691.8 526.2,691.5 534.9,690.8 543.5,690.1 552.1,689.6 560.7,688.9 569.3,688.1 578.0,687.4 586.6,686.7 595.2,685.7 603.8,684.8 612.4,684.0 621.1,682.9 629.7,681.7 638.3,680.6 646.9,679.4 655.5,678.0 664.2,676.7 672.8,675.4 681.4,673.8 690.0,672.0 698.6,670.2 707.3,668.4 715.9,666.4 724.5,664.3 733.1,662.1 741.7,659.7 750.4,657.2 759.0,654.7 767.6,651.9 776.2,648.8 784.8,645.7 793.5,642.5 802.1,638.9 810.7,635.0 819.3,631.1 827.9,627.0 836.6,622.3 845.2,617.5 853.8,612.5 862.4,607.1 871.0,601.4 879.7,595.4 888.3,588.8 896.9,581.8 905.5,574.3 914.1,566.6 922.8,557.7 931.4,548.5 940.0,542.7" fill="none" stroke="#ff7f0e" stroke-width="1.3" opacity="0.9"/><polyline points="95.2,700.1 103.9,700.1 112.5,700.1 121.1,700.1 129.7,700.1 138.3,700.1 147.0,700.1 155.6,699.5 164.2,700.1 172.8,700.1 181.4,699.4 190.1,700.1 198.7,700.1 207.3,700.1 215.9,700.1 224.5,700.1 233.2,699.3 241.8,698.9 250.4,698.9 259.0,698.8 267.6,698.7 276.3,698.8 284.9,698.7 293.5,698.4 302.1,698.4 310.7,698.2 319.4,698.1 328.0,698.1 336.6,697.8 345.2,697.7 353.8,697.6 362.5,697.3 371.1,697.3 379.7,697.0 388.3,696.8 396.9,696.7 405.6,696.3 414.2,696.2 422.8,695.9 431.4,695.7 440.0,695.4 448.7,695.0 457.3,694.7 465.9,694.4 474.5,694.0 483.1,693.6 491.8,693.2 500.4,692.8 509.0,692.3 517.6,691.8 526.2,691.3 534.9,690.7 543.5,690.1 552.1,689.4 560.7,688.8 569.3,688.1 578.0,687.3 586.6,686.4 595.2,685.6 603.8,684.7 612.4,683.7 621.1,682.6 629.7,681.6 638.3,680.4 646.9,679.2 655.5,677.8 664.2,676.4 672.8,674.9 681.4,673.3 690.0,671.6 698.6,669.9 707.3,668.0 715.9,666.0 724.5,663.9 733.1,661.6 741.7,659.2 750.4,656.7 759.0,654.1 767.6,651.3 776.2,648.2 784.8,645.0 793.5,641.7 802.1,638.1 810.7,634.3 819.3,630.2 827.9,625.9 836.6,621.4 845.2,616.6 853.8,611.5 862.4,606.0 871.0,600.2 879.7,594.0 888.3,587.4 896.9,580.3 905.5,572.7 914.1,564.7 922.8,556.1 931.4,546.7 940.0,540.6" fill="none" stroke="#2ca02c" stroke-width="1.3" opacity="0.9"/><polyline points="95.2,700.1 103.9,699.7 112.5,699.7 121.1,699.6 129.7,699.5 138.3,699.5 147.0,699.4 155.6,699.4 164.2,699.4 172.8,699.4 181.4,699.4 190.1,699.4 198.7,699.4 207.3,699.3 215.9,699.2 224.5,699.0 233.2,699.1 241.8,699.0 250.4,698.9 259.0,698.8 267.6,698.7 276.3,698.8 284.9,698.6 293.5,698.5 302.1,698.3 310.7,698.2 319.4,698.1 328.0,698.1 336.6,697.8 345.2,697.8 353.8,697.6 362.5,697.4 371.1,697.2 379.7,697.0 388.3,696.8 396.9,696.6 405.6,696.4 414.2,696.1 422.8,695.9 431.4,695.6 440.0,695.3 448.7,695.1 457.3,694.7 465.9,694.4 474.5,694.0 483.1,693.6 491.8,693.2 500.4,692.7 509.0,692.2 517.6,691.7 526.2,691.2 534.9,690.6 543.5,690.0 552.1,689.3 560.7,688.7 569.3,687.9 578.0,687.2 586.6,686.3 595.2,685.5 603.8,684.5 612.4,683.5 621.1,682.5 629.7,681.4 638.3,680.2 646.9,678.9 655.5,677.6 664.2,676.2 672.8,674.6 681.4,673.1 690.0,671.4 698.6,669.6 707.3,667.7 715.9,665.7 724.5,663.5 733.1,661.2 741.7,658.8 750.4,656.3 759.0,653.6 767.6,650.7 776.2,647.7 784.8,644.4 793.5,641.0 802.1,637.4 810.7,633.6 819.3,629.5 827.9,625.2 836.6,620.6 845.2,615.7 853.8,610.5 862.4,605.0 871.0,599.1 879.7,592.9 888.3,586.2 896.9,579.1 905.5,571.5 914.1,563.3 922.8,554.4 931.4,544.9 940.0,538.9" fill="none" stroke="#1f77b4" stroke-width="1.3" opacity="0.9"/><polyline points="95.2,699.7 103.9,699.7 112.5,699.6 121.1,699.6 129.7,699.6 138.3,699.5 147.0,699.5 155.6,699.5 164.2,699.5 172.8,699.5 181.4,699.5 190.1,699.5 198.7,699.5 207.3,699.3 215.9,699.2 224.5,699.1 233.2,699.1 241.8,699.0 250.4,698.9 259.0,698.8 267.6,698.8 276.3,698.7 284.9,698.6 293.5,698.5 302.1,698.4 310.7,698.2 319.4,698.1 328.0,698.0 336.6,697.9 345.2,697.7 353.8,697.5 362.5,697.4 371.1,697.2 379.7,697.0 388.3,696.8 396.9,696.6 405.6,696.4 414.2,696.2 422.8,695.9 431.4,695.6 440.0,695.3 448.7,695.0 457.3,694.7 465.9,694.3 474.5,694.0 483.1,693.6 491.8,693.2 500.4,692.7 509.0,692.3 517.6,691.7 526.2,691.2 534.9,690.6 543.5,690.0 552.1,689.4 560.7,688.7 569.3,687.9 578.0,687.2 586.6,686.3 595.2,685.5 603.8,684.5 612.4,683.5 621.1,682.5 629.7,681.4 638.3,680.2 646.9,678.9 655.5,677.6 664.2,676.2 672.8,674.7 681.4,673.1 690.0,671.4 698.6,669.6 707.3,667.7 715.9,665.6 724.5,663.5 733.1,661.3 741.7,658.9 750.4,656.3 759.0,653.6 767.6,650.7 776.2,647.7 784.8,644.5 793.5,641.0 802.1,637.4 810.7,633.6 819.3,629.5 827.9,625.2 836.6,620.6 845.2,615.7 853.8,610.5 862.4,605.0 871.0,599.1 879.7,592.9 888.3,586.2 896.9,579.1 905.5,571.4 914.1,563.2 922.8,554.4 931.4,544.9 940.0,538.9" fill="none" stroke="#9467bd" stroke-width="1.3" opacity="0.9"/><line x1="950" y1="530" x2="968" y2="530" stroke="#d62728" stroke-width="2.5"/><text x="972" y="533" font-size="9" fill="#333">0.3s byao!</text><line x1="950" y1="545" x2="968" y2="545" stroke="#ff7f0e" stroke-width="2.5"/><text x="972" y="548" font-size="9" fill="#333">0.7s</text><line x1="950" y1="560" x2="968" y2="560" stroke="#2ca02c" stroke-width="2.5"/><text x="972" y="563" font-size="9" fill="#333">1.5s</text><line x1="950" y1="575" x2="968" y2="575" stroke="#1f77b4" stroke-width="2.5"/><text x="972" y="578" font-size="9" fill="#333">3s</text><line x1="950" y1="590" x2="968" y2="590" stroke="#9467bd" stroke-width="2.5"/><text x="972" y="593" font-size="9" fill="#333">6s</text><text x="78" y="517" font-size="11" font-weight="bold" fill="#222">3. Timbre (oscillation Hz) vs CUTOFF</text><text x="13" y="619.5" font-size="9" fill="#666" transform="rotate(-90 13 619.5)" text-anchor="middle">Hz</text><text x="530" y="747" font-size="10" text-anchor="middle" fill="#444">CUTOFF (0-100)</text></svg>