<svg xmlns="http://www.w3.org/2000/svg" width="1060" height="751" font-family="sans-serif"><rect width="1060" height="751" fill="white"/><text x="530" y="20" font-size="13" font-weight="bold" text-anchor="middle">roland: sweep at 5 speeds (instantaneous freq, RESO=100, 60Hz smoother, E1 saw MIX)</text><rect x="78" y="56" width="862" height="187" fill="#fafafa" stroke="#ccc"/><line x1="78" y1="243" x2="940" y2="243" stroke="#eee"/><text x="72" y="246" font-size="9" text-anchor="end" fill="#555">-9.9</text><line x1="78" y1="196.25" x2="940" y2="196.25" stroke="#eee"/><text x="72" y="199.25" font-size="9" text-anchor="end" fill="#555">26</text><line x1="78" y1="149.5" x2="940" y2="149.5" stroke="#eee"/><text x="72" y="152.5" font-size="9" text-anchor="end" fill="#555">62</text><line x1="78" y1="102.75" x2="940" y2="102.75" stroke="#eee"/><text x="72" y="105.75" font-size="9" text-anchor="end" fill="#555">98</text><line x1="78" y1="56" x2="940" y2="56" stroke="#eee"/><text x="72" y="59" font-size="9" text-anchor="end" fill="#555">134</text><text x="78" y="257" font-size="9" text-anchor="middle" fill="#555">0</text><text x="164.2" y="257" font-size="9" text-anchor="middle" fill="#555">10</text><text x="250.4" y="257" font-size="9" text-anchor="middle" fill="#555">20</text><text x="336.59999999999997" y="257" font-size="9" text-anchor="middle" fill="#555">30</text><text x="422.8" y="257" font-size="9" text-anchor="middle" fill="#555">40</text><text x="509" y="257" font-size="9" text-anchor="middle" fill="#555">50</text><text x="595.1999999999999" y="257" font-size="9" text-anchor="middle" fill="#555">60</text><text x="681.4" y="257" font-size="9" text-anchor="middle" fill="#555">70</text><text x="767.6" y="257" font-size="9" text-anchor="middle" fill="#555">80</text><text x="853.8000000000001" y="257" font-size="9" text-anchor="middle" fill="#555">90</text><text x="940" y="257" font-size="9" text-anchor="middle" fill="#555">100</text><polyline points="95.2,230.1 103.9,230.1 112.5,230.1 121.1,230.1 129.7,230.1 138.3,230.1 147.0,230.1 155.6,230.1 164.2,230.1 172.8,230.1 181.4,230.1 190.1,230.1 198.7,230.1 207.3,230.1 215.9,230.1 224.5,230.1 233.2,230.1 241.8,230.1 250.4,230.1 259.0,230.1 267.6,230.1 276.3,230.1 284.9,230.1 293.5,230.1 302.1,230.1 310.7,230.1 319.4,230.1 328.0,230.1 336.6,230.1 345.2,230.1 353.8,230.1 362.5,230.1 371.1,230.1 379.7,230.1 388.3,157.1 396.9,230.1 405.6,155.0 414.2,153.1 422.8,230.1 431.4,230.1 440.0,149.6 448.7,147.9 457.3,146.5 465.9,145.2 474.5,143.3 483.1,142.2 491.8,141.1 500.4,138.7 509.0,138.0 517.6,136.6 526.2,134.9 534.9,133.3 543.5,132.2 552.1,130.8 560.7,129.6 569.3,128.4 578.0,126.8 586.6,125.4 595.2,124.1 603.8,122.6 612.4,121.0 621.1,119.7 629.7,118.5 638.3,117.2 646.9,115.6 655.5,114.4 664.2,112.8 672.8,111.5 681.4,110.3 690.0,108.9 698.6,107.4 707.3,106.2 715.9,104.7 724.5,103.4 733.1,102.1 741.7,100.6 750.4,99.4 759.0,98.0 767.6,96.6 776.2,95.3 784.8,94.0 793.5,92.7 802.1,91.3 810.7,89.9 819.3,88.6 827.9,87.3 836.6,85.9 845.2,84.6 853.8,83.3 862.4,82.0 871.0,80.6 879.7,79.2 888.3,77.9 896.9,76.5 905.5,75.2 914.1,73.8 922.8,72.4 931.4,71.1 940.0,70.4" fill="none" stroke="#d62728" stroke-width="1.3" opacity="0.9"/><polyline points="95.2,230.1 103.9,230.1 112.5,230.1 121.1,230.1 129.7,230.1 138.3,230.1 147.0,230.1 155.6,230.1 164.2,230.1 172.8,230.1 181.4,230.1 190.1,230.1 198.7,230.1 207.3,230.1 215.9,230.1 224.5,230.1 233.2,230.1 241.8,230.1 250.4,230.1 259.0,230.1 267.6,230.1 276.3,230.1 284.9,230.1 293.5,230.1 302.1,230.1 310.7,169.4 319.4,167.8 328.0,166.4 336.6,165.0 345.2,167.1 353.8,162.2 362.5,161.0 371.1,160.0 379.7,157.4 388.3,156.6 396.9,155.4 405.6,153.5 414.2,152.5 422.8,151.4 431.4,150.1 440.0,149.3 448.7,147.0 457.3,145.6 465.9,145.0 474.5,142.8 483.1,141.4 491.8,140.6 500.4,139.2 509.0,137.3 517.6,135.8 526.2,134.5 534.9,133.0 543.5,131.6 552.1,130.3 560.7,128.9 569.3,127.4 578.0,126.1 586.6,124.8 595.2,123.3 603.8,121.9 612.4,120.5 621.1,119.2 629.7,117.8 638.3,116.4 646.9,115.0 655.5,113.6 664.2,112.3 672.8,111.0 681.4,109.6 690.0,108.2 698.6,106.8 707.3,105.4 715.9,104.1 724.5,102.7 733.1,101.4 741.7,100.0 750.4,98.7 759.0,97.4 767.6,96.0 776.2,94.7 784.8,93.3 793.5,92.0 802.1,90.6 810.7,89.3 819.3,88.0 827.9,86.7 836.6,85.3 845.2,83.9 853.8,82.6 862.4,81.3 871.0,79.9 879.7,78.6 888.3,77.2 896.9,75.9 905.5,74.5 914.1,73.1 922.8,71.7 931.4,70.3 940.0,69.4" fill="none" stroke="#ff7f0e" stroke-width="1.3" opacity="0.9"/><polyline points="95.2,230.1 103.9,230.1 112.5,230.1 121.1,230.1 129.7,230.1 138.3,230.1 147.0,230.1 155.6,230.1 164.2,230.1 172.8,230.1 181.4,230.1 190.1,191.1 198.7,230.1 207.3,230.1 215.9,230.1 224.5,176.5 233.2,230.1 241.8,180.0 250.4,178.6 259.0,176.7 267.6,175.9 276.3,176.7 284.9,177.2 293.5,171.4 302.1,170.1 310.7,169.2 319.4,167.5 328.0,167.4 336.6,165.0 345.2,163.5 353.8,161.8 362.5,160.4 371.1,159.7 379.7,158.1 388.3,156.4 396.9,155.7 405.6,153.6 414.2,152.6 422.8,151.1 431.4,149.7 440.0,148.0 448.7,146.8 457.3,145.3 465.9,143.9 474.5,142.4 483.1,141.1 491.8,139.9 500.4,138.4 509.0,137.1 517.6,135.5 526.2,134.1 534.9,132.8 543.5,131.5 552.1,130.0 560.7,128.5 569.3,127.1 578.0,125.8 586.6,124.4 595.2,123.0 603.8,121.6 612.4,120.3 621.1,118.9 629.7,117.5 638.3,116.2 646.9,114.7 655.5,113.4 664.2,112.0 672.8,110.6 681.4,109.3 690.0,107.9 698.6,106.5 707.3,105.2 715.9,103.8 724.5,102.5 733.1,101.1 741.7,99.8 750.4,98.4 759.0,97.1 767.6,95.7 776.2,94.4 784.8,93.0 793.5,91.7 802.1,90.4 810.7,89.0 819.3,87.7 827.9,86.3 836.6,85.0 845.2,83.7 853.8,82.3 862.4,81.0 871.0,79.7 879.7,78.3 888.3,76.9 896.9,75.6 905.5,74.2 914.1,72.8 922.8,71.4 931.4,70.0 940.0,69.1" fill="none" stroke="#2ca02c" stroke-width="1.3" opacity="0.9"/><polyline points="95.2,230.1 103.9,230.1 112.5,230.1 121.1,202.7 129.7,196.5 138.3,194.3 147.0,192.5 155.6,192.4 164.2,192.5 172.8,192.4 181.4,192.2 190.1,192.2 198.7,192.0 207.3,181.8 215.9,185.3 224.5,181.6 233.2,182.8 241.8,180.9 250.4,178.5 259.0,177.1 267.6,176.5 276.3,177.0 284.9,173.9 293.5,172.1 302.1,170.5 310.7,168.8 319.4,167.9 328.0,167.1 336.6,164.5 345.2,164.2 353.8,162.9 362.5,161.1 371.1,159.1 379.7,157.5 388.3,156.4 396.9,155.0 405.6,153.6 414.2,152.2 422.8,150.7 431.4,149.3 440.0,148.1 448.7,146.8 457.3,145.3 465.9,143.9 474.5,142.5 483.1,140.9 491.8,139.5 500.4,138.1 509.0,136.8 517.6,135.4 526.2,134.0 534.9,132.5 543.5,131.1 552.1,129.7 560.7,128.4 569.3,127.0 578.0,125.6 586.6,124.2 595.2,122.8 603.8,121.5 612.4,120.0 621.1,118.6 629.7,117.3 638.3,115.9 646.9,114.5 655.5,113.1 664.2,111.8 672.8,110.4 681.4,109.0 690.0,107.7 698.6,106.3 707.3,104.9 715.9,103.6 724.5,102.2 733.1,100.9 741.7,99.5 750.4,98.2 759.0,96.8 767.6,95.5 776.2,94.1 784.8,92.8 793.5,91.5 802.1,90.1 810.7,88.8 819.3,87.5 827.9,86.1 836.6,84.8 845.2,83.4 853.8,82.1 862.4,80.8 871.0,79.4 879.7,78.1 888.3,76.7 896.9,75.3 905.5,74.0 914.1,72.6 922.8,71.2 931.4,69.7 940.0,68.9" fill="none" stroke="#1f77b4" stroke-width="1.3" opacity="0.9"/><polyline points="95.2,206.7 103.9,203.1 112.5,202.0 121.1,197.0 129.7,193.1 138.3,195.2 147.0,193.5 155.6,193.1 164.2,193.0 172.8,193.0 181.4,192.9 190.1,192.8 198.7,193.8 207.3,187.6 215.9,184.5 224.5,184.1 233.2,181.0 241.8,181.0 250.4,178.6 259.0,177.4 267.6,177.5 276.3,175.0 284.9,173.5 293.5,171.7 302.1,170.9 310.7,169.2 319.4,168.3 328.0,166.8 336.6,165.1 345.2,163.6 353.8,162.0 362.5,161.0 371.1,159.3 379.7,157.9 388.3,156.6 396.9,155.3 405.6,153.7 414.2,152.4 422.8,150.7 431.4,149.4 440.0,148.0 448.7,146.6 457.3,145.2 465.9,143.7 474.5,142.3 483.1,141.0 491.8,139.6 500.4,138.2 509.0,136.8 517.6,135.4 526.2,133.9 534.9,132.5 543.5,131.2 552.1,129.7 560.7,128.4 569.3,127.0 578.0,125.6 586.6,124.2 595.2,122.8 603.8,121.4 612.4,120.1 621.1,118.7 629.7,117.3 638.3,115.9 646.9,114.5 655.5,113.2 664.2,111.8 672.8,110.4 681.4,109.0 690.0,107.7 698.6,106.3 707.3,104.9 715.9,103.6 724.5,102.2 733.1,100.9 741.7,99.5 750.4,98.2 759.0,96.8 767.6,95.5 776.2,94.1 784.8,92.8 793.5,91.5 802.1,90.1 810.7,88.8 819.3,87.5 827.9,86.1 836.6,84.8 845.2,83.4 853.8,82.1 862.4,80.8 871.0,79.4 879.7,78.1 888.3,76.7 896.9,75.3 905.5,74.0 914.1,72.6 922.8,71.2 931.4,69.7 940.0,68.9" fill="none" stroke="#9467bd" stroke-width="1.3" opacity="0.9"/><line x1="950" y1="60" x2="968" y2="60" stroke="#d62728" stroke-width="2.5"/><text x="972" y="63" font-size="9" fill="#333">0.3s byao!</text><line x1="950" y1="75" x2="968" y2="75" stroke="#ff7f0e" stroke-width="2.5"/><text x="972" y="78" font-size="9" fill="#333">0.7s</text><line x1="950" y1="90" x2="968" y2="90" stroke="#2ca02c" stroke-width="2.5"/><text x="972" y="93" font-size="9" fill="#333">1.5s</text><line x1="950" y1="105" x2="968" y2="105" stroke="#1f77b4" stroke-width="2.5"/><text x="972" y="108" font-size="9" fill="#333">3s</text><line x1="950" y1="120" x2="968" y2="120" stroke="#9467bd" stroke-width="2.5"/><text x="972" y="123" font-size="9" fill="#333">6s</text><text x="78" y="47" font-size="11" font-weight="bold" fill="#222">1. Pitch (semitone) vs CUTOFF</text><text x="13" y="149.5" font-size="9" fill="#666" transform="rotate(-90 13 149.5)" text-anchor="middle">MIDI note</text><rect x="78" y="291" width="862" height="187" fill="#fafafa" stroke="#ccc"/><line x1="78" y1="478" x2="940" y2="478" stroke="#eee"/><text x="72" y="481" font-size="9" text-anchor="end" fill="#555">-26</text><line x1="78" y1="431.25" x2="940" y2="431.25" stroke="#eee"/><text x="72" y="434.25" font-size="9" text-anchor="end" fill="#555">-19</text><line x1="78" y1="384.5" x2="940" y2="384.5" stroke="#eee"/><text x="72" y="387.5" font-size="9" text-anchor="end" fill="#555">-12</text><line x1="78" y1="337.75" x2="940" y2="337.75" stroke="#eee"/><text x="72" y="340.75" font-size="9" text-anchor="end" fill="#555">-5.4</text><line x1="78" y1="291" x2="940" y2="291" stroke="#eee"/><text x="72" y="294" font-size="9" text-anchor="end" fill="#555">1.5</text><text x="78" y="492" font-size="9" text-anchor="middle" fill="#555">0</text><text x="164.2" y="492" font-size="9" text-anchor="middle" fill="#555">10</text><text x="250.4" y="492" font-size="9" text-anchor="middle" fill="#555">20</text><text x="336.59999999999997" y="492" font-size="9" text-anchor="middle" fill="#555">30</text><text x="422.8" y="492" font-size="9" text-anchor="middle" fill="#555">40</text><text x="509" y="492" font-size="9" text-anchor="middle" fill="#555">50</text><text x="595.1999999999999" y="492" font-size="9" text-anchor="middle" fill="#555">60</text><text x="681.4" y="492" font-size="9" text-anchor="middle" fill="#555">70</text><text x="767.6" y="492" font-size="9" text-anchor="middle" fill="#555">80</text><text x="853.8000000000001" y="492" font-size="9" text-anchor="middle" fill="#555">90</text><text x="940" y="492" font-size="9" text-anchor="middle" fill="#555">100</text><polyline points="95.2,463.9 103.9,451.7 112.5,451.2 121.1,452.4 129.7,431.6 138.3,407.8 147.0,403.0 155.6,400.1 164.2,389.6 172.8,385.7 181.4,386.1 190.1,378.9 198.7,371.7 207.3,373.6 215.9,364.1 224.5,355.4 233.2,363.3 241.8,357.2 250.4,364.0 259.0,377.9 267.6,377.4 276.3,376.8 284.9,363.4 293.5,359.7 302.1,354.9 310.7,356.7 319.4,365.8 328.0,364.9 336.6,367.8 345.2,362.5 353.8,353.3 362.5,350.5 371.1,347.1 379.7,349.6 388.3,354.4 396.9,352.8 405.6,355.0 414.2,345.7 422.8,344.9 431.4,345.0 440.0,341.2 448.7,345.1 457.3,342.7 465.9,340.2 474.5,339.0 483.1,339.4 491.8,337.9 500.4,336.3 509.0,336.1 517.6,331.4 526.2,329.3 534.9,327.5 543.5,326.2 552.1,322.4 560.7,321.5 569.3,320.3 578.0,318.6 586.6,318.7 595.2,317.2 603.8,315.9 612.4,315.0 621.1,314.4 629.7,314.0 638.3,313.1 646.9,312.3 655.5,310.3 664.2,309.0 672.8,308.0 681.4,307.4 690.0,306.4 698.6,306.1 707.3,305.3 715.9,304.9 724.5,304.6 733.1,304.3 741.7,303.9 750.4,304.0 759.0,304.3 767.6,304.7 776.2,304.9 784.8,305.1 793.5,305.1 802.1,305.3 810.7,305.8 819.3,306.6 827.9,307.9 836.6,309.3 845.2,310.7 853.8,311.8 862.4,312.8 871.0,313.9 879.7,315.5 888.3,317.7 896.9,320.6 905.5,323.8 914.1,327.5 922.8,331.6 931.4,333.7 940.0,336.0" fill="none" stroke="#d62728" stroke-width="1.3" opacity="0.9"/><polyline points="95.2,454.9 103.9,420.5 112.5,413.5 121.1,410.2 129.7,407.9 138.3,405.3 147.0,405.2 155.6,412.6 164.2,388.9 172.8,383.5 181.4,385.5 190.1,366.6 198.7,358.3 207.3,364.4 215.9,368.0 224.5,375.4 233.2,395.5 241.8,406.9 250.4,387.2 259.0,363.1 267.6,363.0 276.3,368.7 284.9,358.8 293.5,363.9 302.1,370.5 310.7,367.9 319.4,359.7 328.0,356.1 336.6,361.3 345.2,362.8 353.8,365.6 362.5,361.9 371.1,360.3 379.7,368.7 388.3,366.3 396.9,354.6 405.6,357.3 414.2,356.4 422.8,347.6 431.4,345.6 440.0,345.8 448.7,343.3 457.3,339.3 465.9,341.5 474.5,340.6 483.1,336.0 491.8,336.6 500.4,336.1 509.0,331.4 517.6,329.2 526.2,326.1 534.9,324.3 543.5,324.7 552.1,326.1 560.7,324.5 569.3,320.5 578.0,319.6 586.6,317.1 595.2,315.7 603.8,315.7 612.4,313.8 621.1,312.5 629.7,312.3 638.3,311.6 646.9,311.1 655.5,309.4 664.2,308.4 672.8,308.3 681.4,307.5 690.0,306.1 698.6,306.1 707.3,305.8 715.9,304.7 724.5,304.4 733.1,304.8 741.7,304.6 750.4,303.9 759.0,304.6 767.6,304.9 776.2,304.4 784.8,304.7 793.5,305.9 802.1,306.2 810.7,306.2 819.3,307.9 827.9,309.1 836.6,309.1 845.2,310.3 853.8,312.8 862.4,313.9 871.0,314.6 879.7,317.3 888.3,319.9 896.9,321.5 905.5,324.7 914.1,329.4 922.8,333.4 931.4,338.2 940.0,341.8" fill="none" stroke="#ff7f0e" stroke-width="1.3" opacity="0.9"/><polyline points="95.2,423.8 103.9,437.7 112.5,465.1 121.1,428.2 129.7,397.0 138.3,385.2 147.0,377.9 155.6,371.7 164.2,373.6 172.8,366.5 181.4,359.7 190.1,362.7 198.7,365.7 207.3,376.2 215.9,406.8 224.5,448.9 233.2,401.1 241.8,376.8 250.4,376.4 259.0,370.0 267.6,360.2 276.3,363.2 284.9,371.8 293.5,374.9 302.1,367.3 310.7,362.6 319.4,364.6 328.0,358.0 336.6,359.3 345.2,374.1 353.8,379.1 362.5,368.8 371.1,354.1 379.7,350.3 388.3,352.1 396.9,349.5 405.6,345.3 414.2,345.1 422.8,350.6 431.4,349.5 440.0,343.4 448.7,339.6 457.3,338.3 465.9,338.9 474.5,338.0 483.1,337.1 491.8,336.8 500.4,333.7 509.0,332.3 517.6,330.5 526.2,327.3 534.9,327.5 543.5,325.6 552.1,323.0 560.7,322.0 569.3,320.5 578.0,319.6 586.6,318.9 595.2,317.2 603.8,315.1 612.4,313.9 621.1,313.2 629.7,312.2 638.3,311.1 646.9,309.8 655.5,308.7 664.2,308.0 672.8,307.5 681.4,306.8 690.0,306.1 698.6,305.8 707.3,305.2 715.9,304.9 724.5,304.6 733.1,304.3 741.7,304.4 750.4,304.2 759.0,304.3 767.6,304.5 776.2,304.5 784.8,305.0 793.5,305.4 802.1,306.1 810.7,307.0 819.3,307.5 827.9,308.6 836.6,309.8 845.2,310.9 853.8,312.6 862.4,313.8 871.0,315.5 879.7,318.0 888.3,320.0 896.9,322.8 905.5,326.0 914.1,329.8 922.8,335.1 931.4,340.4 940.0,343.3" fill="none" stroke="#2ca02c" stroke-width="1.3" opacity="0.9"/><polyline points="95.2,425.0 103.9,411.9 112.5,423.9 121.1,405.2 129.7,388.5 138.3,394.8 147.0,394.2 155.6,380.8 164.2,366.9 172.8,361.3 181.4,363.7 190.1,368.7 198.7,386.1 207.3,413.2 215.9,415.7 224.5,399.0 233.2,392.8 241.8,381.4 250.4,371.5 259.0,365.1 267.6,360.7 276.3,370.6 284.9,378.4 293.5,376.5 302.1,367.4 310.7,360.1 319.4,359.6 328.0,362.4 336.6,367.7 345.2,368.7 353.8,364.5 362.5,363.0 371.1,358.3 379.7,352.5 388.3,350.4 396.9,352.1 405.6,357.4 414.2,351.4 422.8,345.4 431.4,343.2 440.0,343.3 448.7,344.6 457.3,341.4 465.9,338.4 474.5,335.4 483.1,333.3 491.8,332.4 500.4,330.6 509.0,330.0 517.6,328.6 526.2,327.5 534.9,326.4 543.5,324.4 552.1,323.5 560.7,321.7 569.3,320.1 578.0,318.9 586.6,317.8 595.2,316.8 603.8,315.3 612.4,314.2 621.1,313.3 629.7,312.3 638.3,311.2 646.9,310.2 655.5,309.0 664.2,308.4 672.8,307.6 681.4,306.6 690.0,306.2 698.6,306.0 707.3,305.4 715.9,304.8 724.5,304.6 733.1,304.3 741.7,304.1 750.4,304.1 759.0,304.2 767.6,304.5 776.2,304.8 784.8,305.1 793.5,305.5 802.1,306.2 810.7,307.0 819.3,307.7 827.9,308.6 836.6,309.8 845.2,311.3 853.8,312.6 862.4,314.1 871.0,316.0 879.7,318.2 888.3,320.6 896.9,323.2 905.5,326.3 914.1,330.6 922.8,336.0 931.4,341.8 940.0,345.0" fill="none" stroke="#1f77b4" stroke-width="1.3" opacity="0.9"/><polyline points="95.2,415.5 103.9,406.5 112.5,408.3 121.1,408.7 129.7,400.9 138.3,390.2 147.0,381.1 155.6,372.5 164.2,364.5 172.8,361.8 181.4,366.2 190.1,381.0 198.7,408.3 207.3,431.7 215.9,420.8 224.5,399.1 233.2,392.6 241.8,386.0 250.4,373.0 259.0,363.5 267.6,364.6 276.3,377.4 284.9,382.3 293.5,378.7 302.1,369.0 310.7,359.5 319.4,361.2 328.0,366.6 336.6,365.1 345.2,359.7 353.8,355.1 362.5,356.2 371.1,357.1 379.7,352.4 388.3,351.0 396.9,351.5 405.6,347.5 414.2,346.1 422.8,348.8 431.4,346.2 440.0,342.4 448.7,340.9 457.3,338.3 465.9,337.0 474.5,337.2 483.1,336.0 491.8,334.3 500.4,332.8 509.0,329.9 517.6,328.0 526.2,327.0 534.9,325.3 543.5,323.7 552.1,322.6 560.7,321.7 569.3,320.8 578.0,319.2 586.6,317.6 595.2,316.1 603.8,315.0 612.4,314.0 621.1,312.9 629.7,311.8 638.3,310.6 646.9,309.8 655.5,308.8 664.2,308.2 672.8,307.5 681.4,306.9 690.0,306.3 698.6,305.7 707.3,305.2 715.9,304.8 724.5,304.4 733.1,304.1 741.7,304.1 750.4,304.2 759.0,304.3 767.6,304.5 776.2,304.7 784.8,305.2 793.5,305.7 802.1,306.2 810.7,307.0 819.3,307.9 827.9,308.9 836.6,309.9 845.2,311.2 853.8,312.6 862.4,314.2 871.0,316.0 879.7,318.1 888.3,320.5 896.9,323.3 905.5,326.6 914.1,330.6 922.8,335.6 931.4,342.0 940.0,346.0" fill="none" stroke="#9467bd" stroke-width="1.3" opacity="0.9"/><line x1="950" y1="295" x2="968" y2="295" stroke="#d62728" stroke-width="2.5"/><text x="972" y="298" font-size="9" fill="#333">0.3s byao!</text><line x1="950" y1="310" x2="968" y2="310" stroke="#ff7f0e" stroke-width="2.5"/><text x="972" y="313" font-size="9" fill="#333">0.7s</text><line x1="950" y1="325" x2="968" y2="325" stroke="#2ca02c" stroke-width="2.5"/><text x="972" y="328" font-size="9" fill="#333">1.5s</text><line x1="950" y1="340" x2="968" y2="340" stroke="#1f77b4" stroke-width="2.5"/><text x="972" y="343" font-size="9" fill="#333">3s</text><line x1="950" y1="355" x2="968" y2="355" stroke="#9467bd" stroke-width="2.5"/><text x="972" y="358" font-size="9" fill="#333">6s</text><text x="78" y="282" font-size="11" font-weight="bold" fill="#222">2. Loudness (dB) vs CUTOFF</text><text x="13" y="384.5" font-size="9" fill="#666" transform="rotate(-90 13 384.5)" text-anchor="middle">dB</text><rect x="78" y="526" width="862" height="187" fill="#fafafa" stroke="#ccc"/><line x1="78" y1="713" x2="940" y2="713" stroke="#eee"/><text x="72" y="716" font-size="9" text-anchor="end" fill="#555">-852</text><line x1="78" y1="666.25" x2="940" y2="666.25" stroke="#eee"/><text x="72" y="669.25" font-size="9" text-anchor="end" fill="#555">2237</text><line x1="78" y1="619.5" x2="940" y2="619.5" stroke="#eee"/><text x="72" y="622.5" font-size="9" text-anchor="end" fill="#555">5327</text><line x1="78" y1="572.75" x2="940" y2="572.75" stroke="#eee"/><text x="72" y="575.75" font-size="9" text-anchor="end" fill="#555">8417</text><line x1="78" y1="526" x2="940" y2="526" stroke="#eee"/><text x="72" y="529" font-size="9" text-anchor="end" fill="#555">11506</text><text x="78" y="727" font-size="9" text-anchor="middle" fill="#555">0</text><text x="164.2" y="727" font-size="9" text-anchor="middle" fill="#555">10</text><text x="250.4" y="727" font-size="9" text-anchor="middle" fill="#555">20</text><text x="336.59999999999997" y="727" font-size="9" text-anchor="middle" fill="#555">30</text><text x="422.8" y="727" font-size="9" text-anchor="middle" fill="#555">40</text><text x="509" y="727" font-size="9" text-anchor="middle" fill="#555">50</text><text x="595.1999999999999" y="727" font-size="9" text-anchor="middle" fill="#555">60</text><text x="681.4" y="727" font-size="9" text-anchor="middle" fill="#555">70</text><text x="767.6" y="727" font-size="9" text-anchor="middle" fill="#555">80</text><text x="853.8000000000001" y="727" font-size="9" text-anchor="middle" fill="#555">90</text><text x="940" y="727" font-size="9" text-anchor="middle" fill="#555">100</text><polyline points="95.2,700.1 103.9,700.1 112.5,700.1 121.1,700.1 129.7,700.1 138.3,700.1 147.0,700.1 155.6,700.1 164.2,700.1 172.8,700.1 181.4,700.1 190.1,700.1 198.7,700.1 207.3,700.1 215.9,700.1 224.5,700.1 233.2,700.1 241.8,700.1 250.4,700.1 259.0,700.1 267.6,700.1 276.3,700.1 284.9,700.1 293.5,700.1 302.1,700.1 310.7,700.1 319.4,700.1 328.0,700.1 336.6,700.1 345.2,700.1 353.8,700.1 362.5,700.1 371.1,700.1 379.7,700.1 388.3,696.9 396.9,700.1 405.6,696.6 414.2,696.3 422.8,700.1 431.4,700.1 440.0,695.7 448.7,695.3 457.3,695.0 465.9,694.7 474.5,694.2 483.1,693.9 491.8,693.6 500.4,692.9 509.0,692.7 517.6,692.2 526.2,691.6 534.9,690.9 543.5,690.5 552.1,689.9 560.7,689.3 569.3,688.7 578.0,687.8 586.6,687.0 595.2,686.3 603.8,685.3 612.4,684.2 621.1,683.3 629.7,682.4 638.3,681.3 646.9,679.9 655.5,678.8 664.2,677.3 672.8,675.9 681.4,674.5 690.0,672.9 698.6,671.1 707.3,669.4 715.9,667.4 724.5,665.4 733.1,663.2 741.7,660.8 750.4,658.6 759.0,656.0 767.6,653.1 776.2,650.3 784.8,647.3 793.5,644.1 802.1,640.5 810.7,636.9 819.3,633.2 827.9,629.0 836.6,624.5 845.2,620.0 853.8,615.1 862.4,610.0 871.0,604.2 879.7,598.3 888.3,592.1 896.9,585.3 905.5,578.2 914.1,570.5 922.8,562.3 931.4,553.9 940.0,549.3" fill="none" stroke="#d62728" stroke-width="1.3" opacity="0.9"/><polyline points="95.2,700.1 103.9,700.1 112.5,700.1 121.1,700.1 129.7,700.1 138.3,700.1 147.0,700.1 155.6,700.1 164.2,700.1 172.8,700.1 181.4,700.1 190.1,700.1 198.7,700.1 207.3,700.1 215.9,700.1 224.5,700.1 233.2,700.1 241.8,700.1 250.4,700.1 259.0,700.1 267.6,700.1 276.3,700.1 284.9,700.1 293.5,700.1 302.1,700.1 310.7,698.3 319.4,698.1 328.0,698.0 336.6,697.9 345.2,698.1 353.8,697.6 362.5,697.4 371.1,697.3 379.7,697.0 388.3,696.9 396.9,696.7 405.6,696.4 414.2,696.2 422.8,696.0 431.4,695.8 440.0,695.6 448.7,695.1 457.3,694.8 465.9,694.7 474.5,694.1 483.1,693.7 491.8,693.5 500.4,693.0 509.0,692.4 517.6,691.9 526.2,691.4 534.9,690.8 543.5,690.2 552.1,689.6 560.7,688.9 569.3,688.2 578.0,687.5 586.6,686.7 595.2,685.8 603.8,684.8 612.4,683.9 621.1,682.9 629.7,681.8 638.3,680.6 646.9,679.4 655.5,678.0 664.2,676.7 672.8,675.4 681.4,673.8 690.0,672.0 698.6,670.3 707.3,668.4 715.9,666.4 724.5,664.3 733.1,662.1 741.7,659.7 750.4,657.2 759.0,654.7 767.6,651.9 776.2,648.9 784.8,645.6 793.5,642.5 802.1,638.8 810.7,635.1 819.3,631.1 827.9,627.0 836.6,622.4 845.2,617.5 853.8,612.6 862.4,607.1 871.0,601.4 879.7,595.4 888.3,588.9 896.9,581.8 905.5,574.4 914.1,566.5 922.8,557.8 931.4,548.6 940.0,542.6" fill="none" stroke="#ff7f0e" stroke-width="1.3" opacity="0.9"/><polyline points="95.2,700.1 103.9,700.1 112.5,700.1 121.1,700.1 129.7,700.1 138.3,700.1 147.0,700.1 155.6,700.1 164.2,700.1 172.8,700.1 181.4,700.1 190.1,699.4 198.7,700.1 207.3,700.1 215.9,700.1 224.5,698.8 233.2,700.1 241.8,699.0 250.4,698.9 259.0,698.8 267.6,698.7 276.3,698.8 284.9,698.8 293.5,698.4 302.1,698.3 310.7,698.2 319.4,698.1 328.0,698.1 336.6,697.9 345.2,697.7 353.8,697.5 362.5,697.4 371.1,697.3 379.7,697.1 388.3,696.8 396.9,696.7 405.6,696.4 414.2,696.2 422.8,695.9 431.4,695.7 440.0,695.3 448.7,695.1 457.3,694.7 465.9,694.4 474.5,694.0 483.1,693.6 491.8,693.2 500.4,692.8 509.0,692.3 517.6,691.8 526.2,691.2 534.9,690.7 543.5,690.1 552.1,689.4 560.7,688.7 569.3,688.0 578.0,687.3 586.6,686.5 595.2,685.6 603.8,684.7 612.4,683.7 621.1,682.6 629.7,681.6 638.3,680.4 646.9,679.1 655.5,677.8 664.2,676.4 672.8,674.9 681.4,673.3 690.0,671.7 698.6,669.9 707.3,668.0 715.9,666.0 724.5,663.9 733.1,661.6 741.7,659.3 750.4,656.7 759.0,654.1 767.6,651.3 776.2,648.3 784.8,645.0 793.5,641.7 802.1,638.1 810.7,634.3 819.3,630.2 827.9,625.9 836.6,621.4 845.2,616.6 853.8,611.5 862.4,606.0 871.0,600.2 879.7,594.0 888.3,587.4 896.9,580.3 905.5,572.8 914.1,564.7 922.8,556.1 931.4,546.7 940.0,540.6" fill="none" stroke="#2ca02c" stroke-width="1.3" opacity="0.9"/><polyline points="95.2,700.1 103.9,700.1 112.5,700.1 121.1,699.7 129.7,699.6 138.3,699.5 147.0,699.4 155.6,699.4 164.2,699.4 172.8,699.4 181.4,699.4 190.1,699.4 198.7,699.4 207.3,699.0 215.9,699.2 224.5,699.0 233.2,699.1 241.8,699.0 250.4,698.9 259.0,698.8 267.6,698.8 276.3,698.8 284.9,698.6 293.5,698.5 302.1,698.3 310.7,698.2 319.4,698.1 328.0,698.1 336.6,697.8 345.2,697.8 353.8,697.6 362.5,697.4 371.1,697.2 379.7,697.0 388.3,696.8 396.9,696.6 405.6,696.4 414.2,696.1 422.8,695.9 431.4,695.6 440.0,695.4 448.7,695.1 457.3,694.7 465.9,694.4 474.5,694.0 483.1,693.6 491.8,693.1 500.4,692.7 509.0,692.3 517.6,691.7 526.2,691.2 534.9,690.6 543.5,690.0 552.1,689.3 560.7,688.7 569.3,687.9 578.0,687.2 586.6,686.3 595.2,685.5 603.8,684.6 612.4,683.5 621.1,682.5 629.7,681.4 638.3,680.2 646.9,678.9 655.5,677.6 664.2,676.2 672.8,674.7 681.4,673.1 690.0,671.4 698.6,669.6 707.3,667.7 715.9,665.7 724.5,663.5 733.1,661.2 741.7,658.8 750.4,656.3 759.0,653.6 767.6,650.7 776.2,647.7 784.8,644.5 793.5,641.0 802.1,637.4 810.7,633.6 819.3,629.5 827.9,625.2 836.6,620.6 845.2,615.7 853.8,610.5 862.4,605.0 871.0,599.1 879.7,592.9 888.3,586.2 896.9,579.1 905.5,571.5 914.1,563.3 922.8,554.4 931.4,544.9 940.0,538.9" fill="none" stroke="#1f77b4" stroke-width="1.3" opacity="0.9"/><polyline points="95.2,699.8 103.9,699.7 112.5,699.7 121.1,699.6 129.7,699.5 138.3,699.5 147.0,699.5 155.6,699.5 164.2,699.5 172.8,699.5 181.4,699.5 190.1,699.5 198.7,699.5 207.3,699.3 215.9,699.2 224.5,699.1 233.2,699.0 241.8,699.0 250.4,698.9 259.0,698.8 267.6,698.8 276.3,698.7 284.9,698.6 293.5,698.4 302.1,698.4 310.7,698.2 319.4,698.2 328.0,698.0 336.6,697.9 345.2,697.7 353.8,697.5 362.5,697.4 371.1,697.2 379.7,697.0 388.3,696.8 396.9,696.6 405.6,696.4 414.2,696.2 422.8,695.9 431.4,695.6 440.0,695.3 448.7,695.0 457.3,694.7 465.9,694.3 474.5,694.0 483.1,693.6 491.8,693.2 500.4,692.7 509.0,692.2 517.6,691.7 526.2,691.2 534.9,690.6 543.5,690.0 552.1,689.3 560.7,688.7 569.3,687.9 578.0,687.2 586.6,686.3 595.2,685.5 603.8,684.5 612.4,683.6 621.1,682.5 629.7,681.4 638.3,680.2 646.9,678.9 655.5,677.6 664.2,676.2 672.8,674.7 681.4,673.1 690.0,671.4 698.6,669.6 707.3,667.7 715.9,665.6 724.5,663.5 733.1,661.3 741.7,658.9 750.4,656.3 759.0,653.6 767.6,650.7 776.2,647.7 784.8,644.5 793.5,641.0 802.1,637.4 810.7,633.6 819.3,629.5 827.9,625.2 836.6,620.6 845.2,615.7 853.8,610.5 862.4,605.0 871.0,599.1 879.7,592.9 888.3,586.2 896.9,579.1 905.5,571.4 914.1,563.2 922.8,554.5 931.4,544.9 940.0,538.9" fill="none" stroke="#9467bd" stroke-width="1.3" opacity="0.9"/><line x1="950" y1="530" x2="968" y2="530" stroke="#d62728" stroke-width="2.5"/><text x="972" y="533" font-size="9" fill="#333">0.3s byao!</text><line x1="950" y1="545" x2="968" y2="545" stroke="#ff7f0e" stroke-width="2.5"/><text x="972" y="548" font-size="9" fill="#333">0.7s</text><line x1="950" y1="560" x2="968" y2="560" stroke="#2ca02c" stroke-width="2.5"/><text x="972" y="563" font-size="9" fill="#333">1.5s</text><line x1="950" y1="575" x2="968" y2="575" stroke="#1f77b4" stroke-width="2.5"/><text x="972" y="578" font-size="9" fill="#333">3s</text><line x1="950" y1="590" x2="968" y2="590" stroke="#9467bd" stroke-width="2.5"/><text x="972" y="593" font-size="9" fill="#333">6s</text><text x="78" y="517" font-size="11" font-weight="bold" fill="#222">3. Timbre (oscillation Hz) vs CUTOFF</text><text x="13" y="619.5" font-size="9" fill="#666" transform="rotate(-90 13 619.5)" text-anchor="middle">Hz</text><text x="530" y="747" font-size="10" text-anchor="middle" fill="#444">CUTOFF (0-100)</text></svg>