<svg xmlns="http://www.w3.org/2000/svg" width="1060" height="751" font-family="sans-serif"><rect width="1060" height="751" fill="white"/><text x="530" y="20" font-size="13" font-weight="bold" text-anchor="middle">roland: sweep at 5 speeds (instantaneous freq, RESO=100, 60Hz smoother, E1 saw MIX)</text><rect x="78" y="56" width="862" height="187" fill="#fafafa" stroke="#ccc"/><line x1="78" y1="243" x2="940" y2="243" stroke="#eee"/><text x="72" y="246" font-size="9" text-anchor="end" fill="#555">-10.0</text><line x1="78" y1="196.25" x2="940" y2="196.25" stroke="#eee"/><text x="72" y="199.25" font-size="9" text-anchor="end" fill="#555">26</text><line x1="78" y1="149.5" x2="940" y2="149.5" stroke="#eee"/><text x="72" y="152.5" font-size="9" text-anchor="end" fill="#555">62</text><line x1="78" y1="102.75" x2="940" y2="102.75" stroke="#eee"/><text x="72" y="105.75" font-size="9" text-anchor="end" fill="#555">98</text><line x1="78" y1="56" x2="940" y2="56" stroke="#eee"/><text x="72" y="59" font-size="9" text-anchor="end" fill="#555">135</text><text x="78" y="257" font-size="9" text-anchor="middle" fill="#555">0</text><text x="164.2" y="257" font-size="9" text-anchor="middle" fill="#555">10</text><text x="250.4" y="257" font-size="9" text-anchor="middle" fill="#555">20</text><text x="336.59999999999997" y="257" font-size="9" text-anchor="middle" fill="#555">30</text><text x="422.8" y="257" font-size="9" text-anchor="middle" fill="#555">40</text><text x="509" y="257" font-size="9" text-anchor="middle" fill="#555">50</text><text x="595.1999999999999" y="257" font-size="9" text-anchor="middle" fill="#555">60</text><text x="681.4" y="257" font-size="9" text-anchor="middle" fill="#555">70</text><text x="767.6" y="257" font-size="9" text-anchor="middle" fill="#555">80</text><text x="853.8000000000001" y="257" font-size="9" text-anchor="middle" fill="#555">90</text><text x="940" y="257" font-size="9" text-anchor="middle" fill="#555">100</text><polyline points="95.2,230.1 103.9,230.1 112.5,230.1 121.1,230.1 129.7,230.1 138.3,230.1 147.0,230.1 155.6,230.1 164.2,230.1 172.8,230.1 181.4,230.1 190.1,230.1 198.7,230.1 207.3,230.1 215.9,230.1 224.5,230.1 233.2,230.1 241.8,230.1 250.4,230.1 259.0,230.1 267.6,230.1 276.3,230.1 284.9,230.1 293.5,230.1 302.1,230.1 310.7,230.1 319.4,230.1 328.0,230.1 336.6,230.1 345.2,230.1 353.8,230.1 362.5,230.1 371.1,230.1 379.7,230.1 388.3,230.1 396.9,158.8 405.6,230.1 414.2,156.6 422.8,155.2 431.4,230.1 440.0,152.4 448.7,150.8 457.3,149.2 465.9,147.7 474.5,146.3 483.1,145.0 491.8,143.3 500.4,142.2 509.0,140.9 517.6,139.3 526.2,137.8 534.9,136.5 543.5,134.8 552.1,133.6 560.7,132.0 569.3,130.6 578.0,129.4 586.6,128.1 595.2,126.6 603.8,125.0 612.4,123.7 621.1,122.3 629.7,121.0 638.3,119.5 646.9,118.0 655.5,116.5 664.2,115.1 672.8,113.6 681.4,112.4 690.0,110.9 698.6,109.6 707.3,108.1 715.9,106.7 724.5,105.3 733.1,103.8 741.7,102.4 750.4,101.0 759.0,99.5 767.6,98.1 776.2,96.8 784.8,95.4 793.5,93.9 802.1,92.5 810.7,91.1 819.3,89.7 827.9,88.3 836.6,86.9 845.2,85.4 853.8,84.0 862.4,82.7 871.0,81.2 879.7,79.8 888.3,78.4 896.9,77.0 905.5,75.6 914.1,74.2 922.8,72.8 931.4,71.4 940.0,70.6" fill="none" stroke="#d62728" stroke-width="1.3" opacity="0.9"/><polyline points="95.2,230.1 103.9,230.1 112.5,230.1 121.1,230.1 129.7,230.1 138.3,230.1 147.0,230.1 155.6,230.1 164.2,230.1 172.8,230.1 181.4,230.1 190.1,230.1 198.7,230.1 207.3,230.1 215.9,230.1 224.5,230.1 233.2,230.1 241.8,230.1 250.4,230.1 259.0,230.1 267.6,230.1 276.3,230.1 284.9,230.1 293.5,230.1 302.1,230.1 310.7,230.1 319.4,230.1 328.0,169.7 336.6,168.1 345.2,167.3 353.8,165.1 362.5,163.8 371.1,162.6 379.7,161.6 388.3,159.8 396.9,158.2 405.6,156.6 414.2,155.3 422.8,154.1 431.4,152.6 440.0,150.8 448.7,149.6 457.3,148.3 465.9,147.0 474.5,145.6 483.1,144.2 491.8,142.7 500.4,141.3 509.0,139.8 517.6,138.6 526.2,137.3 534.9,135.6 543.5,134.2 552.1,132.9 560.7,131.6 569.3,130.2 578.0,128.6 586.6,127.2 595.2,125.8 603.8,124.4 612.4,123.0 621.1,121.5 629.7,120.2 638.3,118.7 646.9,117.3 655.5,115.9 664.2,114.5 672.8,113.1 681.4,111.6 690.0,110.2 698.6,108.8 707.3,107.4 715.9,106.0 724.5,104.6 733.1,103.2 741.7,101.8 750.4,100.3 759.0,98.9 767.6,97.5 776.2,96.1 784.8,94.6 793.5,93.3 802.1,91.8 810.7,90.4 819.3,89.0 827.9,87.6 836.6,86.2 845.2,84.7 853.8,83.3 862.4,81.9 871.0,80.5 879.7,79.1 888.3,77.7 896.9,76.3 905.5,74.9 914.1,73.5 922.8,72.0 931.4,70.5 940.0,69.5" fill="none" stroke="#ff7f0e" stroke-width="1.3" opacity="0.9"/><polyline points="95.2,230.1 103.9,230.1 112.5,230.1 121.1,230.1 129.7,230.1 138.3,230.1 147.0,230.1 155.6,230.1 164.2,230.1 172.8,230.1 181.4,230.1 190.1,230.1 198.7,230.1 207.3,230.1 215.9,188.3 224.5,230.1 233.2,230.1 241.8,230.1 250.4,230.1 259.0,180.1 267.6,179.0 276.3,177.6 284.9,176.8 293.5,174.8 302.1,174.5 310.7,171.9 319.4,170.6 328.0,169.0 336.6,167.7 345.2,166.3 353.8,165.4 362.5,163.4 371.1,162.6 379.7,160.8 388.3,159.4 396.9,158.2 405.6,156.6 414.2,155.2 422.8,153.7 431.4,152.4 440.0,150.9 448.7,149.6 457.3,148.2 465.9,146.8 474.5,145.4 483.1,143.9 491.8,142.5 500.4,141.0 509.0,139.6 517.6,138.3 526.2,136.9 534.9,135.5 543.5,134.0 552.1,132.7 560.7,131.2 569.3,129.8 578.0,128.4 586.6,127.0 595.2,125.6 603.8,124.2 612.4,122.7 621.1,121.3 629.7,119.8 638.3,118.5 646.9,117.0 655.5,115.6 664.2,114.2 672.8,112.8 681.4,111.4 690.0,110.0 698.6,108.5 707.3,107.1 715.9,105.7 724.5,104.3 733.1,102.9 741.7,101.4 750.4,100.0 759.0,98.6 767.6,97.2 776.2,95.8 784.8,94.4 793.5,93.0 802.1,91.5 810.7,90.1 819.3,88.7 827.9,87.3 836.6,85.9 845.2,84.5 853.8,83.1 862.4,81.6 871.0,80.2 879.7,78.8 888.3,77.4 896.9,76.0 905.5,74.6 914.1,73.2 922.8,71.7 931.4,70.1 940.0,69.1" fill="none" stroke="#2ca02c" stroke-width="1.3" opacity="0.9"/><polyline points="95.2,230.1 103.9,230.1 112.5,230.1 121.1,230.1 129.7,201.4 138.3,200.2 147.0,198.9 155.6,197.5 164.2,195.9 172.8,194.5 181.4,192.8 190.1,191.4 198.7,190.8 207.3,189.7 215.9,186.8 224.5,186.5 233.2,184.7 241.8,183.6 250.4,182.0 259.0,180.4 267.6,179.2 276.3,177.6 284.9,176.7 293.5,174.8 302.1,173.3 310.7,172.0 319.4,170.7 328.0,169.2 336.6,167.8 345.2,166.2 353.8,164.9 362.5,163.7 371.1,162.2 379.7,160.6 388.3,159.2 396.9,157.8 405.6,156.3 414.2,155.0 422.8,153.6 431.4,152.2 440.0,150.7 448.7,149.4 457.3,147.9 465.9,146.5 474.5,145.1 483.1,143.7 491.8,142.3 500.4,140.8 509.0,139.4 517.6,138.0 526.2,136.6 534.9,135.2 543.5,133.8 552.1,132.3 560.7,131.0 569.3,129.5 578.0,128.1 586.6,126.7 595.2,125.3 603.8,123.9 612.4,122.5 621.1,121.0 629.7,119.6 638.3,118.2 646.9,116.8 655.5,115.4 664.2,114.0 672.8,112.5 681.4,111.1 690.0,109.7 698.6,108.3 707.3,106.9 715.9,105.4 724.5,104.0 733.1,102.6 741.7,101.2 750.4,99.8 759.0,98.4 767.6,96.9 776.2,95.5 784.8,94.1 793.5,92.7 802.1,91.3 810.7,89.9 819.3,88.5 827.9,87.0 836.6,85.6 845.2,84.2 853.8,82.8 862.4,81.4 871.0,80.0 879.7,78.5 888.3,77.2 896.9,75.7 905.5,74.3 914.1,72.9 922.8,71.4 931.4,69.8 940.0,68.9" fill="none" stroke="#1f77b4" stroke-width="1.3" opacity="0.9"/><polyline points="95.2,204.5 103.9,205.6 112.5,204.6 121.1,203.3 129.7,201.5 138.3,200.1 147.0,198.5 155.6,197.4 164.2,195.7 172.8,193.9 181.4,192.8 190.1,191.8 198.7,190.9 207.3,188.8 215.9,187.5 224.5,186.1 233.2,184.7 241.8,183.2 250.4,182.0 259.0,180.3 267.6,179.2 276.3,177.8 284.9,176.3 293.5,174.7 302.1,173.3 310.7,171.9 319.4,170.7 328.0,169.2 336.6,167.8 345.2,166.2 353.8,164.9 362.5,163.4 371.1,161.9 379.7,160.7 388.3,159.2 396.9,157.8 405.6,156.4 414.2,155.0 422.8,153.6 431.4,152.2 440.0,150.7 448.7,149.4 457.3,147.9 465.9,146.5 474.5,145.1 483.1,143.7 491.8,142.3 500.4,140.8 509.0,139.4 517.6,138.0 526.2,136.6 534.9,135.2 543.5,133.7 552.1,132.3 560.7,130.9 569.3,129.5 578.0,128.1 586.6,126.7 595.2,125.3 603.8,123.9 612.4,122.4 621.1,121.0 629.7,119.6 638.3,118.2 646.9,116.8 655.5,115.4 664.2,114.0 672.8,112.5 681.4,111.1 690.0,109.7 698.6,108.3 707.3,106.9 715.9,105.5 724.5,104.0 733.1,102.6 741.7,101.2 750.4,99.8 759.0,98.4 767.6,97.0 776.2,95.5 784.8,94.1 793.5,92.7 802.1,91.3 810.7,89.9 819.3,88.5 827.9,87.0 836.6,85.6 845.2,84.2 853.8,82.8 862.4,81.4 871.0,80.0 879.7,78.6 888.3,77.2 896.9,75.7 905.5,74.3 914.1,72.9 922.8,71.4 931.4,69.8 940.0,68.9" fill="none" stroke="#9467bd" stroke-width="1.3" opacity="0.9"/><line x1="950" y1="60" x2="968" y2="60" stroke="#d62728" stroke-width="2.5"/><text x="972" y="63" font-size="9" fill="#333">0.3s byao!</text><line x1="950" y1="75" x2="968" y2="75" stroke="#ff7f0e" stroke-width="2.5"/><text x="972" y="78" font-size="9" fill="#333">0.7s</text><line x1="950" y1="90" x2="968" y2="90" stroke="#2ca02c" stroke-width="2.5"/><text x="972" y="93" font-size="9" fill="#333">1.5s</text><line x1="950" y1="105" x2="968" y2="105" stroke="#1f77b4" stroke-width="2.5"/><text x="972" y="108" font-size="9" fill="#333">3s</text><line x1="950" y1="120" x2="968" y2="120" stroke="#9467bd" stroke-width="2.5"/><text x="972" y="123" font-size="9" fill="#333">6s</text><text x="78" y="47" font-size="11" font-weight="bold" fill="#222">1. Pitch (semitone) vs CUTOFF</text><text x="13" y="149.5" font-size="9" fill="#666" transform="rotate(-90 13 149.5)" text-anchor="middle">MIDI note</text><rect x="78" y="291" width="862" height="187" fill="#fafafa" stroke="#ccc"/><line x1="78" y1="478" x2="940" y2="478" stroke="#eee"/><text x="72" y="481" font-size="9" text-anchor="end" fill="#555">-26</text><line x1="78" y1="431.25" x2="940" y2="431.25" stroke="#eee"/><text x="72" y="434.25" font-size="9" text-anchor="end" fill="#555">-18</text><line x1="78" y1="384.5" x2="940" y2="384.5" stroke="#eee"/><text x="72" y="387.5" font-size="9" text-anchor="end" fill="#555">-9.7</text><line x1="78" y1="337.75" x2="940" y2="337.75" stroke="#eee"/><text x="72" y="340.75" font-size="9" text-anchor="end" fill="#555">-1.4</text><line x1="78" y1="291" x2="940" y2="291" stroke="#eee"/><text x="72" y="294" font-size="9" text-anchor="end" fill="#555">6.9</text><text x="78" y="492" font-size="9" text-anchor="middle" fill="#555">0</text><text x="164.2" y="492" font-size="9" text-anchor="middle" fill="#555">10</text><text x="250.4" y="492" font-size="9" text-anchor="middle" fill="#555">20</text><text x="336.59999999999997" y="492" font-size="9" text-anchor="middle" fill="#555">30</text><text x="422.8" y="492" font-size="9" text-anchor="middle" fill="#555">40</text><text x="509" y="492" font-size="9" text-anchor="middle" fill="#555">50</text><text x="595.1999999999999" y="492" font-size="9" text-anchor="middle" fill="#555">60</text><text x="681.4" y="492" font-size="9" text-anchor="middle" fill="#555">70</text><text x="767.6" y="492" font-size="9" text-anchor="middle" fill="#555">80</text><text x="853.8000000000001" y="492" font-size="9" text-anchor="middle" fill="#555">90</text><text x="940" y="492" font-size="9" text-anchor="middle" fill="#555">100</text><polyline points="95.2,465.1 103.9,456.1 112.5,456.5 121.1,451.1 129.7,427.1 138.3,409.0 147.0,406.5 155.6,397.4 164.2,379.7 172.8,374.3 181.4,370.7 190.1,351.9 198.7,345.8 207.3,342.7 215.9,322.6 224.5,322.3 233.2,315.5 241.8,308.7 250.4,313.7 259.0,306.5 267.6,309.3 276.3,307.4 284.9,306.8 293.5,308.4 302.1,305.9 310.7,307.8 319.4,308.3 328.0,305.3 336.6,308.0 345.2,307.0 353.8,306.3 362.5,307.8 371.1,308.1 379.7,307.5 388.3,307.6 396.9,308.5 405.6,307.9 414.2,307.9 422.8,307.1 431.4,307.8 440.0,307.9 448.7,306.7 457.3,307.6 465.9,307.1 474.5,307.5 483.1,307.3 491.8,307.6 500.4,306.9 509.0,307.2 517.6,307.8 526.2,307.8 534.9,307.4 543.5,307.7 552.1,307.7 560.7,307.9 569.3,307.9 578.0,308.1 586.6,308.2 595.2,307.8 603.8,308.3 612.4,308.2 621.1,308.4 629.7,308.3 638.3,308.2 646.9,308.3 655.5,308.6 664.2,308.6 672.8,308.7 681.4,308.9 690.0,308.9 698.6,309.1 707.3,309.3 715.9,309.4 724.5,309.5 733.1,309.5 741.7,309.9 750.4,310.0 759.0,310.3 767.6,310.7 776.2,311.0 784.8,311.4 793.5,311.5 802.1,311.9 810.7,312.4 819.3,313.1 827.9,314.0 836.6,315.2 845.2,316.4 853.8,317.5 862.4,318.7 871.0,319.9 879.7,321.4 888.3,323.1 896.9,325.0 905.5,327.1 914.1,329.4 922.8,331.7 931.4,332.9 940.0,334.0" fill="none" stroke="#d62728" stroke-width="1.3" opacity="0.9"/><polyline points="95.2,457.0 103.9,417.8 112.5,411.4 121.1,390.6 129.7,384.3 138.3,363.6 147.0,355.5 155.6,341.8 164.2,322.4 172.8,320.1 181.4,311.0 190.1,305.9 198.7,311.2 207.3,307.6 215.9,303.9 224.5,306.8 233.2,309.7 241.8,308.7 250.4,307.5 259.0,306.6 267.6,306.3 276.3,306.0 284.9,308.5 293.5,308.6 302.1,305.9 310.7,307.4 319.4,308.2 328.0,306.3 336.6,306.6 345.2,308.1 353.8,307.4 362.5,307.4 371.1,308.0 379.7,307.0 388.3,306.9 396.9,307.8 405.6,307.6 414.2,307.5 422.8,307.9 431.4,308.0 440.0,308.1 448.7,307.3 457.3,307.3 465.9,307.2 474.5,307.3 483.1,308.0 491.8,307.8 500.4,307.6 509.0,307.5 517.6,307.7 526.2,307.8 534.9,307.8 543.5,307.7 552.1,307.7 560.7,308.0 569.3,307.9 578.0,307.9 586.6,308.2 595.2,308.1 603.8,308.2 612.4,308.5 621.1,308.4 629.7,308.3 638.3,308.4 646.9,308.5 655.5,308.4 664.2,308.6 672.8,308.9 681.4,308.9 690.0,309.0 698.6,309.1 707.3,309.3 715.9,309.4 724.5,309.5 733.1,309.8 741.7,309.9 750.4,310.1 759.0,310.5 767.6,310.8 776.2,310.9 784.8,311.3 793.5,312.0 802.1,312.4 810.7,312.7 819.3,313.8 827.9,314.8 836.6,315.2 845.2,316.3 853.8,317.9 862.4,319.3 871.0,320.7 879.7,322.5 888.3,324.2 896.9,325.9 905.5,328.1 914.1,330.5 922.8,332.8 931.4,335.0 940.0,336.2" fill="none" stroke="#ff7f0e" stroke-width="1.3" opacity="0.9"/><polyline points="95.2,406.6 103.9,391.5 112.5,376.5 121.1,354.2 129.7,330.0 138.3,314.5 147.0,308.2 155.6,306.6 164.2,306.1 172.8,308.4 181.4,308.8 190.1,305.4 198.7,307.2 207.3,306.8 215.9,306.6 224.5,309.4 233.2,308.2 241.8,307.2 250.4,306.9 259.0,306.3 267.6,307.2 276.3,307.2 284.9,306.7 293.5,307.7 302.1,307.3 310.7,306.9 319.4,307.4 328.0,307.9 336.6,307.4 345.2,306.8 353.8,307.6 362.5,308.1 371.1,307.3 379.7,307.2 388.3,307.3 396.9,307.8 405.6,307.6 414.2,307.5 422.8,307.7 431.4,307.4 440.0,307.6 448.7,307.5 457.3,307.5 465.9,307.4 474.5,307.5 483.1,307.6 491.8,307.7 500.4,307.8 509.0,307.8 517.6,307.9 526.2,307.6 534.9,307.7 543.5,308.0 552.1,307.8 560.7,307.8 569.3,308.0 578.0,308.0 586.6,308.0 595.2,308.1 603.8,308.2 612.4,308.3 621.1,308.3 629.7,308.4 638.3,308.5 646.9,308.5 655.5,308.6 664.2,308.8 672.8,308.8 681.4,308.9 690.0,309.0 698.6,309.1 707.3,309.2 715.9,309.4 724.5,309.7 733.1,309.8 741.7,310.1 750.4,310.3 759.0,310.5 767.6,310.9 776.2,311.1 784.8,311.5 793.5,311.9 802.1,312.4 810.7,313.2 819.3,313.7 827.9,314.7 836.6,315.7 845.2,316.7 853.8,318.1 862.4,319.5 871.0,321.1 879.7,322.7 888.3,324.4 896.9,326.7 905.5,328.7 914.1,330.9 922.8,333.4 931.4,334.9 940.0,335.1" fill="none" stroke="#2ca02c" stroke-width="1.3" opacity="0.9"/><polyline points="95.2,372.6 103.9,328.3 112.5,313.6 121.1,310.1 129.7,306.6 138.3,306.0 147.0,307.2 155.6,308.0 164.2,307.7 172.8,306.4 181.4,306.7 190.1,307.4 198.7,307.4 207.3,307.2 215.9,306.8 224.5,307.3 233.2,307.9 241.8,307.3 250.4,306.9 259.0,307.3 267.6,307.6 276.3,306.9 284.9,307.1 293.5,307.7 302.1,307.4 310.7,307.4 319.4,307.3 328.0,307.2 336.6,307.3 345.2,307.3 353.8,307.4 362.5,307.5 371.1,307.2 379.7,307.2 388.3,307.5 396.9,307.6 405.6,307.7 414.2,307.4 422.8,307.4 431.4,307.6 440.0,307.4 448.7,307.5 457.3,307.8 465.9,307.7 474.5,307.5 483.1,307.6 491.8,307.7 500.4,307.7 509.0,307.7 517.6,307.8 526.2,307.8 534.9,307.8 543.5,307.8 552.1,307.9 560.7,307.9 569.3,307.9 578.0,308.0 586.6,308.1 595.2,308.1 603.8,308.2 612.4,308.2 621.1,308.3 629.7,308.4 638.3,308.5 646.9,308.5 655.5,308.6 664.2,308.7 672.8,308.8 681.4,308.9 690.0,309.1 698.6,309.2 707.3,309.3 715.9,309.5 724.5,309.7 733.1,309.9 741.7,310.1 750.4,310.3 759.0,310.5 767.6,310.9 776.2,311.2 784.8,311.6 793.5,312.0 802.1,312.6 810.7,313.3 819.3,313.9 827.9,314.8 836.6,315.8 845.2,317.0 853.8,318.3 862.4,319.8 871.0,321.4 879.7,323.1 888.3,324.8 896.9,326.9 905.5,329.0 914.1,331.3 922.8,333.8 931.4,334.7 940.0,334.2" fill="none" stroke="#1f77b4" stroke-width="1.3" opacity="0.9"/><polyline points="95.2,319.3 103.9,308.1 112.5,306.9 121.1,306.4 129.7,307.4 138.3,307.9 147.0,307.4 155.6,306.8 164.2,306.8 172.8,307.4 181.4,306.8 190.1,307.0 198.7,307.6 207.3,307.2 215.9,307.2 224.5,307.4 233.2,307.4 241.8,307.5 250.4,307.4 259.0,307.4 267.6,307.3 276.3,307.1 284.9,307.3 293.5,307.4 302.1,307.3 310.7,307.6 319.4,307.4 328.0,307.0 336.6,307.4 345.2,307.4 353.8,307.4 362.5,307.7 371.1,307.5 379.7,307.3 388.3,307.4 396.9,307.7 405.6,307.6 414.2,307.5 422.8,307.5 431.4,307.5 440.0,307.5 448.7,307.6 457.3,307.6 465.9,307.5 474.5,307.6 483.1,307.7 491.8,307.6 500.4,307.8 509.0,307.8 517.6,307.7 526.2,307.7 534.9,307.8 543.5,307.9 552.1,307.9 560.7,307.9 569.3,308.0 578.0,308.0 586.6,308.1 595.2,308.1 603.8,308.2 612.4,308.2 621.1,308.3 629.7,308.4 638.3,308.5 646.9,308.5 655.5,308.6 664.2,308.7 672.8,308.8 681.4,308.9 690.0,309.1 698.6,309.2 707.3,309.3 715.9,309.5 724.5,309.7 733.1,309.9 741.7,310.1 750.4,310.3 759.0,310.6 767.6,310.8 776.2,311.2 784.8,311.6 793.5,312.0 802.1,312.6 810.7,313.2 819.3,313.9 827.9,314.8 836.6,315.8 845.2,317.0 853.8,318.3 862.4,319.8 871.0,321.4 879.7,323.0 888.3,324.8 896.9,327.0 905.5,329.0 914.1,331.3 922.8,333.8 931.4,334.7 940.0,334.3" fill="none" stroke="#9467bd" stroke-width="1.3" opacity="0.9"/><line x1="950" y1="295" x2="968" y2="295" stroke="#d62728" stroke-width="2.5"/><text x="972" y="298" font-size="9" fill="#333">0.3s byao!</text><line x1="950" y1="310" x2="968" y2="310" stroke="#ff7f0e" stroke-width="2.5"/><text x="972" y="313" font-size="9" fill="#333">0.7s</text><line x1="950" y1="325" x2="968" y2="325" stroke="#2ca02c" stroke-width="2.5"/><text x="972" y="328" font-size="9" fill="#333">1.5s</text><line x1="950" y1="340" x2="968" y2="340" stroke="#1f77b4" stroke-width="2.5"/><text x="972" y="343" font-size="9" fill="#333">3s</text><line x1="950" y1="355" x2="968" y2="355" stroke="#9467bd" stroke-width="2.5"/><text x="972" y="358" font-size="9" fill="#333">6s</text><text x="78" y="282" font-size="11" font-weight="bold" fill="#222">2. Loudness (dB) vs CUTOFF</text><text x="13" y="384.5" font-size="9" fill="#666" transform="rotate(-90 13 384.5)" text-anchor="middle">dB</text><rect x="78" y="526" width="862" height="187" fill="#fafafa" stroke="#ccc"/><line x1="78" y1="713" x2="940" y2="713" stroke="#eee"/><text x="72" y="716" font-size="9" text-anchor="end" fill="#555">-871</text><line x1="78" y1="666.25" x2="940" y2="666.25" stroke="#eee"/><text x="72" y="669.25" font-size="9" text-anchor="end" fill="#555">2287</text><line x1="78" y1="619.5" x2="940" y2="619.5" stroke="#eee"/><text x="72" y="622.5" font-size="9" text-anchor="end" fill="#555">5446</text><line x1="78" y1="572.75" x2="940" y2="572.75" stroke="#eee"/><text x="72" y="575.75" font-size="9" text-anchor="end" fill="#555">8605</text><line x1="78" y1="526" x2="940" y2="526" stroke="#eee"/><text x="72" y="529" font-size="9" text-anchor="end" fill="#555">11763</text><text x="78" y="727" font-size="9" text-anchor="middle" fill="#555">0</text><text x="164.2" y="727" font-size="9" text-anchor="middle" fill="#555">10</text><text x="250.4" y="727" font-size="9" text-anchor="middle" fill="#555">20</text><text x="336.59999999999997" y="727" font-size="9" text-anchor="middle" fill="#555">30</text><text x="422.8" y="727" font-size="9" text-anchor="middle" fill="#555">40</text><text x="509" y="727" font-size="9" text-anchor="middle" fill="#555">50</text><text x="595.1999999999999" y="727" font-size="9" text-anchor="middle" fill="#555">60</text><text x="681.4" y="727" font-size="9" text-anchor="middle" fill="#555">70</text><text x="767.6" y="727" font-size="9" text-anchor="middle" fill="#555">80</text><text x="853.8000000000001" y="727" font-size="9" text-anchor="middle" fill="#555">90</text><text x="940" y="727" font-size="9" text-anchor="middle" fill="#555">100</text><polyline points="95.2,700.1 103.9,700.1 112.5,700.1 121.1,700.1 129.7,700.1 138.3,700.1 147.0,700.1 155.6,700.1 164.2,700.1 172.8,700.1 181.4,700.1 190.1,700.1 198.7,700.1 207.3,700.1 215.9,700.1 224.5,700.1 233.2,700.1 241.8,700.1 250.4,700.1 259.0,700.1 267.6,700.1 276.3,700.1 284.9,700.1 293.5,700.1 302.1,700.1 310.7,700.1 319.4,700.1 328.0,700.1 336.6,700.1 345.2,700.1 353.8,700.1 362.5,700.1 371.1,700.1 379.7,700.1 388.3,700.1 396.9,697.2 405.6,700.1 414.2,696.9 422.8,696.7 431.4,700.1 440.0,696.2 448.7,695.9 457.3,695.6 465.9,695.3 474.5,695.0 483.1,694.7 491.8,694.3 500.4,694.0 509.0,693.6 517.6,693.1 526.2,692.7 534.9,692.2 543.5,691.6 552.1,691.1 560.7,690.5 569.3,689.8 578.0,689.3 586.6,688.6 595.2,687.9 603.8,686.9 612.4,686.1 621.1,685.2 629.7,684.4 638.3,683.3 646.9,682.1 655.5,680.8 664.2,679.6 672.8,678.2 681.4,676.9 690.0,675.4 698.6,673.8 707.3,672.1 715.9,670.3 724.5,668.4 733.1,666.2 741.7,664.0 750.4,661.7 759.0,659.1 767.6,656.4 776.2,653.6 784.8,650.6 793.5,647.4 802.1,643.9 810.7,640.2 819.3,636.3 827.9,632.3 836.6,627.8 845.2,623.1 853.8,618.1 862.4,612.9 871.0,607.1 879.7,601.0 888.3,594.4 896.9,587.6 905.5,580.6 914.1,572.9 922.8,564.5 931.4,555.7 940.0,550.7" fill="none" stroke="#d62728" stroke-width="1.3" opacity="0.9"/><polyline points="95.2,700.1 103.9,700.1 112.5,700.1 121.1,700.1 129.7,700.1 138.3,700.1 147.0,700.1 155.6,700.1 164.2,700.1 172.8,700.1 181.4,700.1 190.1,700.1 198.7,700.1 207.3,700.1 215.9,700.1 224.5,700.1 233.2,700.1 241.8,700.1 250.4,700.1 259.0,700.1 267.6,700.1 276.3,700.1 284.9,700.1 293.5,700.1 302.1,700.1 310.7,700.1 319.4,700.1 328.0,698.3 336.6,698.2 345.2,698.1 353.8,697.9 362.5,697.8 371.1,697.6 379.7,697.5 388.3,697.3 396.9,697.1 405.6,696.9 414.2,696.7 422.8,696.5 431.4,696.3 440.0,695.9 448.7,695.7 457.3,695.4 465.9,695.2 474.5,694.8 483.1,694.5 491.8,694.1 500.4,693.7 509.0,693.3 517.6,692.9 526.2,692.5 534.9,691.9 543.5,691.4 552.1,690.8 560.7,690.3 569.3,689.6 578.0,688.9 586.6,688.2 595.2,687.4 603.8,686.6 612.4,685.7 621.1,684.7 629.7,683.8 638.3,682.6 646.9,681.5 655.5,680.4 664.2,679.0 672.8,677.7 681.4,676.2 690.0,674.6 698.6,673.0 707.3,671.2 715.9,669.3 724.5,667.3 733.1,665.2 741.7,663.0 750.4,660.4 759.0,657.9 767.6,655.1 776.2,652.2 784.8,649.0 793.5,645.8 802.1,642.1 810.7,638.4 819.3,634.4 827.9,630.1 836.6,625.5 845.2,620.6 853.8,615.5 862.4,610.0 871.0,604.1 879.7,597.8 888.3,591.2 896.9,584.2 905.5,576.6 914.1,568.7 922.8,559.7 931.4,549.8 940.0,543.0" fill="none" stroke="#ff7f0e" stroke-width="1.3" opacity="0.9"/><polyline points="95.2,700.1 103.9,700.1 112.5,700.1 121.1,700.1 129.7,700.1 138.3,700.1 147.0,700.1 155.6,700.1 164.2,700.1 172.8,700.1 181.4,700.1 190.1,700.1 198.7,700.1 207.3,700.1 215.9,699.3 224.5,700.1 233.2,700.1 241.8,700.1 250.4,700.1 259.0,699.0 267.6,698.9 276.3,698.8 284.9,698.8 293.5,698.7 302.1,698.7 310.7,698.5 319.4,698.4 328.0,698.3 336.6,698.1 345.2,698.0 353.8,697.9 362.5,697.7 371.1,697.6 379.7,697.4 388.3,697.3 396.9,697.1 405.6,696.9 414.2,696.7 422.8,696.4 431.4,696.2 440.0,696.0 448.7,695.7 457.3,695.4 465.9,695.1 474.5,694.8 483.1,694.4 491.8,694.1 500.4,693.7 509.0,693.2 517.6,692.8 526.2,692.3 534.9,691.8 543.5,691.3 552.1,690.7 560.7,690.1 569.3,689.4 578.0,688.8 586.6,688.0 595.2,687.3 603.8,686.4 612.4,685.5 621.1,684.6 629.7,683.5 638.3,682.4 646.9,681.3 655.5,680.1 664.2,678.8 672.8,677.4 681.4,675.9 690.0,674.3 698.6,672.6 707.3,670.8 715.9,668.9 724.5,666.9 733.1,664.7 741.7,662.4 750.4,659.9 759.0,657.3 767.6,654.5 776.2,651.5 784.8,648.4 793.5,645.0 802.1,641.4 810.7,637.6 819.3,633.5 827.9,629.2 836.6,624.5 845.2,619.7 853.8,614.4 862.4,608.8 871.0,602.9 879.7,596.4 888.3,589.9 896.9,582.7 905.5,574.9 914.1,566.8 922.8,557.9 931.4,547.6 940.0,540.4" fill="none" stroke="#2ca02c" stroke-width="1.3" opacity="0.9"/><polyline points="95.2,700.1 103.9,700.1 112.5,700.1 121.1,700.1 129.7,699.7 138.3,699.6 147.0,699.6 155.6,699.6 164.2,699.5 172.8,699.5 181.4,699.5 190.1,699.4 198.7,699.4 207.3,699.4 215.9,699.3 224.5,699.3 233.2,699.2 241.8,699.1 250.4,699.1 259.0,699.0 267.6,698.9 276.3,698.8 284.9,698.8 293.5,698.7 302.1,698.6 310.7,698.5 319.4,698.4 328.0,698.3 336.6,698.2 345.2,698.0 353.8,697.9 362.5,697.8 371.1,697.6 379.7,697.4 388.3,697.2 396.9,697.1 405.6,696.8 414.2,696.6 422.8,696.4 431.4,696.2 440.0,695.9 448.7,695.7 457.3,695.4 465.9,695.1 474.5,694.7 483.1,694.4 491.8,694.0 500.4,693.6 509.0,693.2 517.6,692.7 526.2,692.3 534.9,691.7 543.5,691.2 552.1,690.6 560.7,690.0 569.3,689.3 578.0,688.6 586.6,687.9 595.2,687.1 603.8,686.3 612.4,685.3 621.1,684.4 629.7,683.4 638.3,682.3 646.9,681.1 655.5,679.8 664.2,678.5 672.8,677.1 681.4,675.6 690.0,674.0 698.6,672.3 707.3,670.5 715.9,668.6 724.5,666.5 733.1,664.3 741.7,662.0 750.4,659.5 759.0,656.8 767.6,654.0 776.2,651.0 784.8,647.8 793.5,644.4 802.1,640.8 810.7,636.9 819.3,632.8 827.9,628.4 836.6,623.7 845.2,618.7 853.8,613.4 862.4,607.8 871.0,601.8 879.7,595.3 888.3,588.7 896.9,581.4 905.5,573.6 914.1,565.3 922.8,556.2 931.4,545.6 940.0,538.9" fill="none" stroke="#1f77b4" stroke-width="1.3" opacity="0.9"/><polyline points="95.2,699.7 103.9,699.7 112.5,699.7 121.1,699.7 129.7,699.7 138.3,699.6 147.0,699.6 155.6,699.6 164.2,699.5 172.8,699.5 181.4,699.5 190.1,699.4 198.7,699.4 207.3,699.3 215.9,699.3 224.5,699.2 233.2,699.2 241.8,699.1 250.4,699.1 259.0,699.0 267.6,698.9 276.3,698.9 284.9,698.8 293.5,698.7 302.1,698.6 310.7,698.5 319.4,698.4 328.0,698.3 336.6,698.2 345.2,698.0 353.8,697.9 362.5,697.7 371.1,697.6 379.7,697.4 388.3,697.2 396.9,697.1 405.6,696.9 414.2,696.7 422.8,696.4 431.4,696.2 440.0,695.9 448.7,695.7 457.3,695.4 465.9,695.1 474.5,694.7 483.1,694.4 491.8,694.0 500.4,693.6 509.0,693.2 517.6,692.7 526.2,692.3 534.9,691.7 543.5,691.2 552.1,690.6 560.7,690.0 569.3,689.3 578.0,688.6 586.6,687.9 595.2,687.1 603.8,686.2 612.4,685.3 621.1,684.4 629.7,683.3 638.3,682.3 646.9,681.1 655.5,679.9 664.2,678.5 672.8,677.1 681.4,675.6 690.0,674.0 698.6,672.3 707.3,670.5 715.9,668.6 724.5,666.5 733.1,664.3 741.7,662.0 750.4,659.5 759.0,656.8 767.6,654.0 776.2,651.0 784.8,647.8 793.5,644.4 802.1,640.8 810.7,636.9 819.3,632.8 827.9,628.4 836.6,623.7 845.2,618.7 853.8,613.5 862.4,607.8 871.0,601.8 879.7,595.3 888.3,588.7 896.9,581.4 905.5,573.6 914.1,565.3 922.8,556.2 931.4,545.6 940.0,538.9" fill="none" stroke="#9467bd" stroke-width="1.3" opacity="0.9"/><line x1="950" y1="530" x2="968" y2="530" stroke="#d62728" stroke-width="2.5"/><text x="972" y="533" font-size="9" fill="#333">0.3s byao!</text><line x1="950" y1="545" x2="968" y2="545" stroke="#ff7f0e" stroke-width="2.5"/><text x="972" y="548" font-size="9" fill="#333">0.7s</text><line x1="950" y1="560" x2="968" y2="560" stroke="#2ca02c" stroke-width="2.5"/><text x="972" y="563" font-size="9" fill="#333">1.5s</text><line x1="950" y1="575" x2="968" y2="575" stroke="#1f77b4" stroke-width="2.5"/><text x="972" y="578" font-size="9" fill="#333">3s</text><line x1="950" y1="590" x2="968" y2="590" stroke="#9467bd" stroke-width="2.5"/><text x="972" y="593" font-size="9" fill="#333">6s</text><text x="78" y="517" font-size="11" font-weight="bold" fill="#222">3. Timbre (oscillation Hz) vs CUTOFF</text><text x="13" y="619.5" font-size="9" fill="#666" transform="rotate(-90 13 619.5)" text-anchor="middle">Hz</text><text x="530" y="747" font-size="10" text-anchor="middle" fill="#444">CUTOFF (0-100)</text></svg>