<svg xmlns="http://www.w3.org/2000/svg" width="1020" height="946" font-family="sans-serif"><rect width="1020" height="946" fill="white"/><text x="510" y="20" font-size="13" font-weight="bold" text-anchor="middle">roland: oscillation smoothness over full CUTOFF sweep (RESO=100). blue=MIX(saw E1)  orange=osc only</text><rect x="76" y="56" width="928" height="104" fill="#fafafa" stroke="#ccc"/><line x1="76" y1="160" x2="1004" y2="160" stroke="#eee"/><text x="70" y="163" font-size="9" text-anchor="end" fill="#555">8.2</text><line x1="76" y1="134" x2="1004" y2="134" stroke="#eee"/><text x="70" y="137" font-size="9" text-anchor="end" fill="#555">39</text><line x1="76" y1="108" x2="1004" y2="108" stroke="#eee"/><text x="70" y="111" font-size="9" text-anchor="end" fill="#555">70</text><line x1="76" y1="82" x2="1004" y2="82" stroke="#eee"/><text x="70" y="85" font-size="9" text-anchor="end" fill="#555">101</text><line x1="76" y1="56" x2="1004" y2="56" stroke="#eee"/><text x="70" y="59" font-size="9" text-anchor="end" fill="#555">132</text><text x="64.95238095238095" y="174" font-size="9" text-anchor="middle" fill="#555">0</text><text x="160.10809151785713" y="174" font-size="9" text-anchor="middle" fill="#555">10</text><text x="255.26380208333333" y="174" font-size="9" text-anchor="middle" fill="#555">20</text><text x="350.41951264880953" y="174" font-size="9" text-anchor="middle" fill="#555">30</text><text x="445.57522321428576" y="174" font-size="9" text-anchor="middle" fill="#555">40</text><text x="540.7309337797619" y="174" font-size="9" text-anchor="middle" fill="#555">50</text><text x="635.8866443452381" y="174" font-size="9" text-anchor="middle" fill="#555">60</text><text x="731.0423549107143" y="174" font-size="9" text-anchor="middle" fill="#555">70</text><text x="826.1980654761904" y="174" font-size="9" text-anchor="middle" fill="#555">80</text><text x="921.3537760416667" y="174" font-size="9" text-anchor="middle" fill="#555">90</text><text x="1016.509486607143" y="174" font-size="9" text-anchor="middle" fill="#555">100</text><polyline points="76.0,152.8 81.5,152.8 87.0,146.9 92.6,152.8 98.1,152.8 103.6,152.8 109.1,152.8 114.7,146.9 120.2,146.9 125.7,146.9 131.2,146.9 136.8,146.9 142.3,146.9 147.8,146.9 153.3,146.9 158.9,146.9 164.4,142.7 169.9,142.7 175.4,142.7 181.0,142.7 186.5,142.7 192.0,142.7 197.5,139.5 203.0,139.5 208.6,139.5 214.1,139.5 219.6,139.5 225.1,139.5 230.7,136.8 236.2,136.8 241.7,136.8 247.2,136.8 252.8,136.8 258.3,134.6 263.8,134.6 269.3,134.6 274.9,134.6 280.4,132.7 285.9,132.7 291.4,132.7 297.0,130.9 302.5,130.9 308.0,130.9 313.5,129.4 319.0,129.4 324.6,129.4 330.1,128.0 335.6,128.0 341.1,126.8 346.7,126.8 352.2,126.8 357.7,125.6 363.2,125.6 368.8,124.5 374.3,124.5 379.8,123.5 385.3,123.5 390.9,122.6 396.4,121.7 401.9,121.7 407.4,120.8 413.0,120.1 418.5,120.1 424.0,119.3 429.5,118.6 435.0,117.9 440.6,117.9 446.1,117.3 451.6,116.7 457.1,116.1 462.7,115.5 468.2,114.9 473.7,114.4 479.2,113.9 484.8,113.4 490.3,112.9 495.8,112.5 501.3,112.0 506.9,111.2 512.4,110.8 517.9,110.4 523.4,109.6 529.0,109.2 534.5,108.5 540.0,108.2 545.5,107.5 551.0,107.2 556.6,106.6 562.1,106.0 567.6,105.4 573.1,104.9 578.7,104.3 584.2,103.8 589.7,103.3 595.2,102.8 600.8,102.4 606.3,101.7 611.8,101.1 617.3,100.7 622.9,100.1 628.4,99.5 633.9,99.1 639.4,98.6 645.0,97.9 650.5,97.4 656.0,96.9 661.5,96.3 667.0,95.9 672.6,95.3 678.1,94.9 683.6,94.2 689.1,93.6 694.7,93.2 700.2,92.6 705.7,92.1 711.2,91.6 716.8,91.1 722.3,90.5 727.8,90.0 733.3,89.4 738.9,88.9 744.4,88.4 749.9,87.7 755.4,87.3 761.0,86.8 766.5,86.2 772.0,85.6 777.5,85.0 783.0,84.5 788.6,84.0 794.1,83.6 799.6,83.0 805.1,82.6 810.7,82.0 816.2,81.6 821.7,81.0 827.2,80.3 832.8,79.9 838.3,79.2 843.8,78.8 849.3,78.3 854.9,77.7 860.4,77.1 865.9,76.6 871.4,76.0 877.0,75.6 882.5,74.9 888.0,74.5 893.5,73.9 899.0,73.4 904.6,72.9 910.1,72.2 915.6,71.8 921.1,71.2 926.7,70.7 932.2,70.1 937.7,69.7 943.2,69.3 948.8,68.6 954.3,68.0 959.8,67.9 965.3,66.9 970.9,66.3 976.4,66.1 981.9,65.3 987.4,65.0 993.0,64.3 998.5,63.8 1004.0,63.2" fill="none" stroke="#1f77b4" stroke-width="1.3"/><text x="76" y="47" font-size="11" font-weight="bold" fill="#222">1a. Pitch MIX (semitone)</text><text x="13" y="108" font-size="9" fill="#666" transform="rotate(-90 13 108)" text-anchor="middle">note</text><rect x="76" y="206" width="928" height="104" fill="#fafafa" stroke="#ccc"/><line x1="76" y1="310" x2="1004" y2="310" stroke="#eee"/><text x="70" y="313" font-size="9" text-anchor="end" fill="#555">-8.1</text><line x1="76" y1="284" x2="1004" y2="284" stroke="#eee"/><text x="70" y="287" font-size="9" text-anchor="end" fill="#555">-4.1</text><line x1="76" y1="258" x2="1004" y2="258" stroke="#eee"/><text x="70" y="261" font-size="9" text-anchor="end" fill="#555">0.00</text><line x1="76" y1="232" x2="1004" y2="232" stroke="#eee"/><text x="70" y="235" font-size="9" text-anchor="end" fill="#555">4.1</text><line x1="76" y1="206" x2="1004" y2="206" stroke="#eee"/><text x="70" y="209" font-size="9" text-anchor="end" fill="#555">8.1</text><text x="64.95238095238095" y="324" font-size="9" text-anchor="middle" fill="#555">0</text><text x="160.10809151785713" y="324" font-size="9" text-anchor="middle" fill="#555">10</text><text x="255.26380208333333" y="324" font-size="9" text-anchor="middle" fill="#555">20</text><text x="350.41951264880953" y="324" font-size="9" text-anchor="middle" fill="#555">30</text><text x="445.57522321428576" y="324" font-size="9" text-anchor="middle" fill="#555">40</text><text x="540.7309337797619" y="324" font-size="9" text-anchor="middle" fill="#555">50</text><text x="635.8866443452381" y="324" font-size="9" text-anchor="middle" fill="#555">60</text><text x="731.0423549107143" y="324" font-size="9" text-anchor="middle" fill="#555">70</text><text x="826.1980654761904" y="324" font-size="9" text-anchor="middle" fill="#555">80</text><text x="921.3537760416667" y="324" font-size="9" text-anchor="middle" fill="#555">90</text><text x="1016.509486607143" y="324" font-size="9" text-anchor="middle" fill="#555">100</text><line x1="76" y1="258" x2="1004" y2="258" stroke="#bbb" stroke-dasharray="2 2"/><polyline points="76.0,258.0 81.5,258.0 87.0,213.2 92.6,302.8 98.1,258.0 103.6,258.0 109.1,258.0 114.7,213.2 120.2,258.0 125.7,258.0 131.2,258.0 136.8,258.0 142.3,258.0 147.8,258.0 153.3,258.0 158.9,258.0 164.4,226.2 169.9,258.0 175.4,258.0 181.0,258.0 186.5,258.0 192.0,258.0 197.5,233.3 203.0,258.0 208.6,258.0 214.1,258.0 219.6,258.0 225.1,258.0 230.7,237.8 236.2,258.0 241.7,258.0 247.2,258.0 252.8,258.0 258.3,241.0 263.8,258.0 269.3,258.0 274.9,258.0 280.4,243.2 285.9,258.0 291.4,258.0 297.0,245.0 302.5,258.0 308.0,258.0 313.5,246.4 319.0,258.0 324.6,258.0 330.1,247.5 335.6,258.0 341.1,248.4 346.7,258.0 352.2,258.0 357.7,249.2 363.2,258.0 368.8,249.8 374.3,258.0 379.8,250.4 385.3,258.0 390.9,250.9 396.4,251.3 401.9,258.0 407.4,251.7 413.0,252.0 418.5,258.0 424.0,252.3 429.5,252.6 435.0,252.9 440.6,258.0 446.1,253.1 451.6,253.3 457.1,253.5 462.7,253.7 468.2,253.8 473.7,254.0 479.2,254.1 484.8,254.3 490.3,254.4 495.8,254.5 501.3,254.6 506.9,251.5 512.4,254.9 517.9,255.0 523.4,252.2 529.0,255.2 534.5,252.6 540.0,255.4 545.5,253.0 551.0,255.6 556.6,253.3 562.1,253.5 567.6,253.7 573.1,253.8 578.7,254.0 584.2,254.1 589.7,254.3 595.2,254.4 600.8,254.5 606.3,252.9 611.8,253.2 617.3,254.9 622.9,253.5 628.4,253.7 633.9,255.2 639.4,253.9 645.0,252.8 650.5,254.3 656.0,254.4 661.5,253.3 667.0,254.6 672.6,253.7 678.1,254.9 683.6,253.0 689.1,253.2 694.7,255.2 700.2,253.5 705.7,253.7 711.2,254.6 716.8,253.9 722.3,253.3 727.8,254.3 733.3,253.7 738.9,253.8 744.4,254.6 749.9,252.8 755.4,254.9 761.0,253.8 766.5,253.4 772.0,253.6 777.5,253.7 783.0,253.9 788.6,254.0 794.1,255.1 799.6,253.4 805.1,254.9 810.7,254.1 816.2,254.6 821.7,253.1 827.2,253.0 832.8,254.6 838.3,253.3 843.8,254.5 849.3,254.3 854.9,253.8 860.4,253.3 865.9,254.1 871.4,253.7 877.0,254.4 882.5,253.2 888.0,254.6 893.5,253.3 899.0,254.2 904.6,254.5 910.1,252.9 915.6,254.6 921.1,253.7 926.7,253.8 932.2,253.6 937.7,254.9 943.2,254.9 948.8,252.8 954.3,253.2 959.8,257.7 965.3,250.4 970.9,253.7 976.4,256.1 981.9,251.6 987.4,255.7 993.0,252.8 998.5,254.5 1004.0,253.1" fill="none" stroke="#1f77b4" stroke-width="1.3"/><text x="76" y="197" font-size="11" font-weight="bold" fill="#222">1b. Pitch delta per frame (spike = pitch jump)</text><text x="13" y="258" font-size="9" fill="#666" transform="rotate(-90 13 258)" text-anchor="middle">d note</text><rect x="76" y="356" width="928" height="104" fill="#fafafa" stroke="#ccc"/><line x1="76" y1="460" x2="1004" y2="460" stroke="#eee"/><text x="70" y="463" font-size="9" text-anchor="end" fill="#555">-10</text><line x1="76" y1="434" x2="1004" y2="434" stroke="#eee"/><text x="70" y="437" font-size="9" text-anchor="end" fill="#555">-6.2</text><line x1="76" y1="408" x2="1004" y2="408" stroke="#eee"/><text x="70" y="411" font-size="9" text-anchor="end" fill="#555">-2.4</text><line x1="76" y1="382" x2="1004" y2="382" stroke="#eee"/><text x="70" y="385" font-size="9" text-anchor="end" fill="#555">1.4</text><line x1="76" y1="356" x2="1004" y2="356" stroke="#eee"/><text x="70" y="359" font-size="9" text-anchor="end" fill="#555">5.2</text><text x="64.95238095238095" y="474" font-size="9" text-anchor="middle" fill="#555">0</text><text x="160.10809151785713" y="474" font-size="9" text-anchor="middle" fill="#555">10</text><text x="255.26380208333333" y="474" font-size="9" text-anchor="middle" fill="#555">20</text><text x="350.41951264880953" y="474" font-size="9" text-anchor="middle" fill="#555">30</text><text x="445.57522321428576" y="474" font-size="9" text-anchor="middle" fill="#555">40</text><text x="540.7309337797619" y="474" font-size="9" text-anchor="middle" fill="#555">50</text><text x="635.8866443452381" y="474" font-size="9" text-anchor="middle" fill="#555">60</text><text x="731.0423549107143" y="474" font-size="9" text-anchor="middle" fill="#555">70</text><text x="826.1980654761904" y="474" font-size="9" text-anchor="middle" fill="#555">80</text><text x="921.3537760416667" y="474" font-size="9" text-anchor="middle" fill="#555">90</text><text x="1016.509486607143" y="474" font-size="9" text-anchor="middle" fill="#555">100</text><polyline points="76.0,452.8 81.5,414.6 87.0,389.9 92.6,376.0 98.1,368.8 103.6,365.6 109.1,364.5 114.7,364.7 120.2,364.5 125.7,363.2 131.2,364.9 136.8,364.1 142.3,363.7 147.8,365.2 153.3,364.4 158.9,364.8 164.4,364.7 169.9,364.3 175.4,364.5 181.0,365.6 186.5,365.9 192.0,365.1 197.5,364.3 203.0,364.4 208.6,363.6 214.1,364.4 219.6,365.2 225.1,364.2 230.7,364.4 236.2,364.3 241.7,364.4 247.2,364.3 252.8,364.2 258.3,364.5 263.8,364.3 269.3,364.3 274.9,364.9 280.4,364.6 285.9,364.7 291.4,364.6 297.0,364.7 302.5,364.3 308.0,364.0 313.5,364.4 319.0,364.4 324.6,364.5 330.1,364.7 335.6,364.6 341.1,364.2 346.7,364.2 352.2,364.3 357.7,364.1 363.2,364.4 368.8,364.6 374.3,364.3 379.8,364.5 385.3,364.4 390.9,364.4 396.4,364.7 401.9,364.6 407.4,364.4 413.0,364.4 418.5,364.2 424.0,364.4 429.5,364.7 435.0,364.5 440.6,364.7 446.1,364.6 451.6,364.5 457.1,364.6 462.7,364.6 468.2,364.6 473.7,364.7 479.2,364.7 484.8,364.6 490.3,364.7 495.8,364.6 501.3,364.8 506.9,364.7 512.4,364.8 517.9,364.8 523.4,364.8 529.0,364.9 534.5,364.9 540.0,364.9 545.5,364.8 551.0,364.9 556.6,364.8 562.1,364.9 567.6,364.9 573.1,364.9 578.7,364.9 584.2,365.0 589.7,365.1 595.2,365.0 600.8,365.2 606.3,365.1 611.8,365.2 617.3,365.2 622.9,365.2 628.4,365.2 633.9,365.2 639.4,365.3 645.0,365.3 650.5,365.4 656.0,365.5 661.5,365.5 667.0,365.5 672.6,365.6 678.1,365.6 683.6,365.7 689.1,365.8 694.7,365.8 700.2,365.9 705.7,365.9 711.2,366.0 716.8,366.1 722.3,366.2 727.8,366.2 733.3,366.3 738.9,366.4 744.4,366.5 749.9,366.6 755.4,366.7 761.0,366.8 766.5,366.9 772.0,367.0 777.5,367.1 783.0,367.3 788.6,367.4 794.1,367.6 799.6,367.7 805.1,367.9 810.7,368.0 816.2,368.2 821.7,368.4 827.2,368.6 832.8,368.9 838.3,369.1 843.8,369.4 849.3,369.7 854.9,370.0 860.4,370.4 865.9,370.8 871.4,371.3 877.0,371.8 882.5,372.3 888.0,372.9 893.5,373.5 899.0,374.2 904.6,374.9 910.1,375.8 915.6,376.7 921.1,377.6 926.7,378.7 932.2,379.7 937.7,380.9 943.2,382.1 948.8,383.0 954.3,384.3 959.8,385.6 965.3,386.9 970.9,388.5 976.4,389.9 981.9,391.5 987.4,393.1 993.0,394.8 998.5,396.7 1004.0,397.5" fill="none" stroke="#2ca02c" stroke-width="1.3"/><text x="76" y="347" font-size="11" font-weight="bold" fill="#222">2a. Loudness MIX (dB)</text><text x="13" y="408" font-size="9" fill="#666" transform="rotate(-90 13 408)" text-anchor="middle">dB</text><rect x="76" y="506" width="928" height="104" fill="#fafafa" stroke="#ccc"/><line x1="76" y1="610" x2="1004" y2="610" stroke="#eee"/><text x="70" y="613" font-size="9" text-anchor="end" fill="#555">-0.74</text><line x1="76" y1="584" x2="1004" y2="584" stroke="#eee"/><text x="70" y="587" font-size="9" text-anchor="end" fill="#555">0.97</text><line x1="76" y1="558" x2="1004" y2="558" stroke="#eee"/><text x="70" y="561" font-size="9" text-anchor="end" fill="#555">2.7</text><line x1="76" y1="532" x2="1004" y2="532" stroke="#eee"/><text x="70" y="535" font-size="9" text-anchor="end" fill="#555">4.4</text><line x1="76" y1="506" x2="1004" y2="506" stroke="#eee"/><text x="70" y="509" font-size="9" text-anchor="end" fill="#555">6.1</text><text x="64.95238095238095" y="624" font-size="9" text-anchor="middle" fill="#555">0</text><text x="160.10809151785713" y="624" font-size="9" text-anchor="middle" fill="#555">10</text><text x="255.26380208333333" y="624" font-size="9" text-anchor="middle" fill="#555">20</text><text x="350.41951264880953" y="624" font-size="9" text-anchor="middle" fill="#555">30</text><text x="445.57522321428576" y="624" font-size="9" text-anchor="middle" fill="#555">40</text><text x="540.7309337797619" y="624" font-size="9" text-anchor="middle" fill="#555">50</text><text x="635.8866443452381" y="624" font-size="9" text-anchor="middle" fill="#555">60</text><text x="731.0423549107143" y="624" font-size="9" text-anchor="middle" fill="#555">70</text><text x="826.1980654761904" y="624" font-size="9" text-anchor="middle" fill="#555">80</text><text x="921.3537760416667" y="624" font-size="9" text-anchor="middle" fill="#555">90</text><text x="1016.509486607143" y="624" font-size="9" text-anchor="middle" fill="#555">100</text><line x1="76" y1="598.7159720748529" x2="1004" y2="598.7159720748529" stroke="#bbb" stroke-dasharray="2 2"/><polyline points="76.0,598.7 81.5,513.2 87.0,543.5 92.6,567.7 98.1,582.4 103.6,591.6 109.1,596.3 114.7,599.2 120.2,598.4 125.7,595.6 131.2,602.5 136.8,597.1 142.3,597.6 147.8,602.1 153.3,596.9 158.9,599.8 164.4,598.5 169.9,597.8 175.4,599.2 181.0,601.1 186.5,599.4 192.0,597.0 197.5,596.9 203.0,599.0 208.6,596.8 214.1,600.5 219.6,600.5 225.1,596.5 230.7,599.1 236.2,598.6 241.7,598.8 247.2,598.6 252.8,598.5 258.3,599.3 263.8,598.3 269.3,598.8 274.9,600.0 280.4,598.2 285.9,599.0 291.4,598.5 297.0,598.9 302.5,597.7 308.0,598.2 313.5,599.5 319.0,598.9 324.6,598.9 330.1,599.1 335.6,598.5 341.1,597.9 346.7,598.7 352.2,598.9 357.7,598.3 363.2,599.3 368.8,599.3 374.3,597.9 379.8,599.3 385.3,598.4 390.9,598.8 396.4,599.4 401.9,598.5 407.4,598.2 413.0,598.6 418.5,598.4 424.0,599.1 429.5,599.3 435.0,598.5 440.6,599.0 446.1,598.4 451.6,598.7 457.1,598.9 462.7,598.7 468.2,598.7 473.7,598.9 479.2,598.7 484.8,598.7 490.3,598.8 495.8,598.6 501.3,599.1 506.9,598.5 512.4,598.9 517.9,598.8 523.4,598.6 529.0,599.0 534.5,598.8 540.0,598.6 545.5,598.6 551.0,598.8 556.6,598.6 562.1,599.0 567.6,598.8 573.1,598.7 578.7,598.8 584.2,598.7 589.7,598.9 595.2,598.6 600.8,599.1 606.3,598.6 611.8,598.8 617.3,598.8 622.9,598.7 628.4,598.8 633.9,598.7 639.4,598.8 645.0,598.8 650.5,598.9 656.0,598.8 661.5,598.8 667.0,598.8 672.6,598.8 678.1,598.9 683.6,598.9 689.1,598.9 694.7,598.8 700.2,598.9 705.7,598.8 711.2,598.8 716.8,598.9 722.3,598.9 727.8,598.9 733.3,598.9 738.9,598.9 744.4,598.9 749.9,599.0 755.4,598.9 761.0,599.0 766.5,598.9 772.0,598.9 777.5,599.0 783.0,599.0 788.6,599.0 794.1,599.1 799.6,599.0 805.1,599.1 810.7,599.1 816.2,599.1 821.7,599.2 827.2,599.2 832.8,599.3 838.3,599.2 843.8,599.3 849.3,599.4 854.9,599.5 860.4,599.5 865.9,599.6 871.4,599.8 877.0,599.8 882.5,600.0 888.0,600.0 893.5,600.1 899.0,600.3 904.6,600.4 910.1,600.6 915.6,600.7 921.1,600.9 926.7,601.1 932.2,601.1 937.7,601.2 943.2,601.4 948.8,600.9 954.3,601.5 959.8,601.7 965.3,601.6 970.9,602.4 976.4,601.8 981.9,602.1 987.4,602.4 993.0,602.6 998.5,602.8 1004.0,600.5" fill="none" stroke="#2ca02c" stroke-width="1.3"/><text x="76" y="497" font-size="11" font-weight="bold" fill="#222">2b. Loudness delta per frame (spike = volume jump)</text><text x="13" y="558" font-size="9" fill="#666" transform="rotate(-90 13 558)" text-anchor="middle">d dB</text><rect x="76" y="656" width="928" height="104" fill="#fafafa" stroke="#ccc"/><line x1="76" y1="760" x2="1004" y2="760" stroke="#eee"/><text x="70" y="763" font-size="9" text-anchor="end" fill="#555">-762</text><line x1="76" y1="734" x2="1004" y2="734" stroke="#eee"/><text x="70" y="737" font-size="9" text-anchor="end" fill="#555">2111</text><line x1="76" y1="708" x2="1004" y2="708" stroke="#eee"/><text x="70" y="711" font-size="9" text-anchor="end" fill="#555">4985</text><line x1="76" y1="682" x2="1004" y2="682" stroke="#eee"/><text x="70" y="685" font-size="9" text-anchor="end" fill="#555">7858</text><line x1="76" y1="656" x2="1004" y2="656" stroke="#eee"/><text x="70" y="659" font-size="9" text-anchor="end" fill="#555">10731</text><text x="64.95238095238095" y="774" font-size="9" text-anchor="middle" fill="#555">0</text><text x="160.10809151785713" y="774" font-size="9" text-anchor="middle" fill="#555">10</text><text x="255.26380208333333" y="774" font-size="9" text-anchor="middle" fill="#555">20</text><text x="350.41951264880953" y="774" font-size="9" text-anchor="middle" fill="#555">30</text><text x="445.57522321428576" y="774" font-size="9" text-anchor="middle" fill="#555">40</text><text x="540.7309337797619" y="774" font-size="9" text-anchor="middle" fill="#555">50</text><text x="635.8866443452381" y="774" font-size="9" text-anchor="middle" fill="#555">60</text><text x="731.0423549107143" y="774" font-size="9" text-anchor="middle" fill="#555">70</text><text x="826.1980654761904" y="774" font-size="9" text-anchor="middle" fill="#555">80</text><text x="921.3537760416667" y="774" font-size="9" text-anchor="middle" fill="#555">90</text><text x="1016.509486607143" y="774" font-size="9" text-anchor="middle" fill="#555">100</text><polyline points="76.0,752.8 81.5,752.8 87.0,752.7 92.6,752.5 98.1,752.4 103.6,752.3 109.1,752.3 114.7,752.3 120.2,752.2 125.7,752.1 131.2,752.1 136.8,752.1 142.3,752.0 147.8,752.0 153.3,752.0 158.9,751.9 164.4,751.9 169.9,751.9 175.4,751.8 181.0,751.7 186.5,751.7 192.0,751.6 197.5,751.5 203.0,751.4 208.6,751.4 214.1,751.4 219.6,751.3 225.1,751.2 230.7,751.2 236.2,751.0 241.7,750.9 247.2,750.8 252.8,750.8 258.3,750.7 263.8,750.6 269.3,750.5 274.9,750.4 280.4,750.3 285.9,750.2 291.4,750.0 297.0,749.9 302.5,749.8 308.0,749.7 313.5,749.5 319.0,749.4 324.6,749.2 330.1,749.1 335.6,748.9 341.1,748.8 346.7,748.5 352.2,748.4 357.7,748.4 363.2,748.0 368.8,747.9 374.3,747.8 379.8,747.7 385.3,747.5 390.9,747.3 396.4,747.1 401.9,746.7 407.4,746.6 413.0,746.3 418.5,746.0 424.0,745.9 429.5,745.8 435.0,745.4 440.6,745.1 446.1,745.1 451.6,744.7 457.1,744.3 462.7,744.1 468.2,743.8 473.7,743.2 479.2,742.9 484.8,742.7 490.3,742.6 495.8,742.2 501.3,741.7 506.9,741.5 512.4,741.2 517.9,740.7 523.4,740.3 529.0,739.9 534.5,739.7 540.0,739.4 545.5,738.6 551.0,738.0 556.6,737.9 562.1,737.4 567.6,737.0 573.1,736.4 578.7,735.8 584.2,735.3 589.7,734.7 595.2,734.4 600.8,734.2 606.3,733.6 611.8,733.0 617.3,732.5 622.9,732.0 628.4,731.2 633.9,730.6 639.4,730.1 645.0,729.6 650.5,729.1 656.0,728.6 661.5,728.1 667.0,727.7 672.6,727.1 678.1,726.3 683.6,725.5 689.1,724.7 694.7,724.6 700.2,724.0 705.7,723.2 711.2,722.6 716.8,722.1 722.3,721.2 727.8,720.2 733.3,720.1 738.9,719.3 744.4,718.9 749.9,718.3 755.4,717.2 761.0,716.6 766.5,715.7 772.0,715.1 777.5,714.3 783.0,713.5 788.6,713.3 794.1,712.5 799.6,712.1 805.1,710.9 810.7,709.9 816.2,709.5 821.7,708.2 827.2,708.3 832.8,706.5 838.3,706.5 843.8,705.2 849.3,705.5 854.9,704.2 860.4,703.6 865.9,703.6 871.4,701.9 877.0,703.5 882.5,702.5 888.0,701.4 893.5,702.3 899.0,701.3 904.6,700.6 910.1,700.5 915.6,699.7 921.1,698.4 926.7,697.3 932.2,696.4 937.7,694.2 943.2,692.4 948.8,690.7 954.3,689.2 959.8,687.0 965.3,684.5 970.9,681.6 976.4,678.4 981.9,675.5 987.4,672.0 993.0,668.9 998.5,665.9 1004.0,663.2" fill="none" stroke="#9467bd" stroke-width="1.3"/><text x="76" y="647" font-size="11" font-weight="bold" fill="#222">3a. Timbre MIX (centroid Hz)</text><text x="13" y="708" font-size="9" fill="#666" transform="rotate(-90 13 708)" text-anchor="middle">Hz</text><rect x="76" y="806" width="928" height="104" fill="#fafafa" stroke="#ccc"/><line x1="76" y1="910" x2="1004" y2="910" stroke="#eee"/><text x="70" y="913" font-size="9" text-anchor="end" fill="#555">-217</text><line x1="76" y1="884" x2="1004" y2="884" stroke="#eee"/><text x="70" y="887" font-size="9" text-anchor="end" fill="#555">-55</text><line x1="76" y1="858" x2="1004" y2="858" stroke="#eee"/><text x="70" y="861" font-size="9" text-anchor="end" fill="#555">106</text><line x1="76" y1="832" x2="1004" y2="832" stroke="#eee"/><text x="70" y="835" font-size="9" text-anchor="end" fill="#555">268</text><line x1="76" y1="806" x2="1004" y2="806" stroke="#eee"/><text x="70" y="809" font-size="9" text-anchor="end" fill="#555">430</text><text x="64.95238095238095" y="924" font-size="9" text-anchor="middle" fill="#555">0</text><text x="160.10809151785713" y="924" font-size="9" text-anchor="middle" fill="#555">10</text><text x="255.26380208333333" y="924" font-size="9" text-anchor="middle" fill="#555">20</text><text x="350.41951264880953" y="924" font-size="9" text-anchor="middle" fill="#555">30</text><text x="445.57522321428576" y="924" font-size="9" text-anchor="middle" fill="#555">40</text><text x="540.7309337797619" y="924" font-size="9" text-anchor="middle" fill="#555">50</text><text x="635.8866443452381" y="924" font-size="9" text-anchor="middle" fill="#555">60</text><text x="731.0423549107143" y="924" font-size="9" text-anchor="middle" fill="#555">70</text><text x="826.1980654761904" y="924" font-size="9" text-anchor="middle" fill="#555">80</text><text x="921.3537760416667" y="924" font-size="9" text-anchor="middle" fill="#555">90</text><text x="1016.509486607143" y="924" font-size="9" text-anchor="middle" fill="#555">100</text><line x1="76" y1="875.1013557128034" x2="1004" y2="875.1013557128034" stroke="#bbb" stroke-dasharray="2 2"/><polyline points="76.0,875.1 81.5,875.2 87.0,872.7 92.6,871.8 98.1,872.5 103.6,873.8 109.1,875.1 114.7,874.9 120.2,873.6 125.7,873.9 131.2,875.3 136.8,874.1 142.3,873.4 147.8,874.6 153.3,875.0 158.9,874.2 164.4,874.8 169.9,874.4 175.4,873.9 181.0,874.3 186.5,874.0 192.0,873.6 197.5,873.4 203.0,873.8 208.6,875.0 214.1,874.7 219.6,873.2 225.1,873.6 230.7,874.2 236.2,872.8 241.7,873.5 247.2,873.1 252.8,874.2 258.3,873.5 263.8,872.8 269.3,874.1 274.9,873.3 280.4,873.8 285.9,872.6 291.4,871.7 297.0,872.8 302.5,873.5 308.0,874.0 313.5,871.1 319.0,873.1 324.6,872.1 330.1,872.9 335.6,871.9 341.1,873.4 346.7,870.5 352.2,873.0 357.7,874.2 363.2,869.5 368.8,872.8 374.3,873.0 379.8,873.4 385.3,871.6 390.9,871.3 396.4,871.6 401.9,868.4 407.4,872.2 413.0,870.8 418.5,870.3 424.0,872.0 429.5,873.5 435.0,869.0 440.6,870.1 446.1,874.3 451.6,867.5 457.1,868.3 462.7,872.1 468.2,869.7 473.7,863.6 479.2,870.9 484.8,871.0 490.3,872.9 495.8,869.1 501.3,864.9 506.9,871.4 512.4,871.3 517.9,865.2 523.4,867.9 529.0,868.5 534.5,870.6 540.0,870.7 545.5,860.5 551.0,865.2 556.6,872.5 562.1,866.6 567.6,868.1 573.1,864.7 578.7,863.9 584.2,866.5 589.7,864.8 595.2,868.9 600.8,871.6 606.3,864.6 611.8,864.4 617.3,866.7 622.9,864.9 628.4,861.8 633.9,865.0 639.4,866.1 645.0,864.9 650.5,866.5 656.0,867.2 661.5,865.1 667.0,868.3 672.6,864.6 678.1,861.6 683.6,860.4 689.1,861.6 694.7,872.9 700.2,864.4 705.7,860.9 711.2,864.4 716.8,865.3 722.3,858.9 727.8,858.6 733.3,872.7 738.9,861.4 744.4,868.2 749.9,863.7 755.4,856.2 761.0,864.0 766.5,859.7 772.0,864.2 777.5,860.0 783.0,862.2 788.6,871.1 794.1,861.4 799.6,866.3 805.1,854.1 810.7,857.5 816.2,869.1 821.7,851.8 827.2,875.9 832.8,844.4 838.3,874.1 843.8,852.6 849.3,879.8 854.9,852.9 860.4,863.8 865.9,875.0 871.4,845.2 877.0,902.8 882.5,857.3 888.0,855.5 893.5,891.6 899.0,857.8 904.6,862.3 910.1,872.5 915.6,860.8 921.1,852.1 926.7,855.4 932.2,859.7 937.7,836.8 943.2,843.0 948.8,843.7 954.3,849.8 959.8,834.3 965.3,831.7 970.9,823.9 976.4,818.1 981.9,823.2 987.4,813.2 993.0,819.3 998.5,821.9 1004.0,826.7" fill="none" stroke="#9467bd" stroke-width="1.3"/><text x="76" y="797" font-size="11" font-weight="bold" fill="#222">3b. Timbre delta per frame (spike = timbre jump)</text><text x="13" y="858" font-size="9" fill="#666" transform="rotate(-90 13 858)" text-anchor="middle">d Hz</text><text x="510" y="942" font-size="10" text-anchor="middle" fill="#444">CUTOFF (0-100) over sweep</text></svg>