<svg xmlns="http://www.w3.org/2000/svg" width="1020" height="946" font-family="sans-serif"><rect width="1020" height="946" fill="white"/><text x="510" y="20" font-size="13" font-weight="bold" text-anchor="middle">moog: oscillation smoothness over full CUTOFF sweep (RESO=100). blue=MIX(saw E1)  orange=osc only</text><rect x="76" y="56" width="928" height="104" fill="#fafafa" stroke="#ccc"/><line x1="76" y1="160" x2="1004" y2="160" stroke="#eee"/><text x="70" y="163" font-size="9" text-anchor="end" fill="#555">8.2</text><line x1="76" y1="134" x2="1004" y2="134" stroke="#eee"/><text x="70" y="137" font-size="9" text-anchor="end" fill="#555">39</text><line x1="76" y1="108" x2="1004" y2="108" stroke="#eee"/><text x="70" y="111" font-size="9" text-anchor="end" fill="#555">70</text><line x1="76" y1="82" x2="1004" y2="82" stroke="#eee"/><text x="70" y="85" font-size="9" text-anchor="end" fill="#555">101</text><line x1="76" y1="56" x2="1004" y2="56" stroke="#eee"/><text x="70" y="59" font-size="9" text-anchor="end" fill="#555">132</text><text x="64.95238095238095" y="174" font-size="9" text-anchor="middle" fill="#555">0</text><text x="160.10809151785713" y="174" font-size="9" text-anchor="middle" fill="#555">10</text><text x="255.26380208333333" y="174" font-size="9" text-anchor="middle" fill="#555">20</text><text x="350.41951264880953" y="174" font-size="9" text-anchor="middle" fill="#555">30</text><text x="445.57522321428576" y="174" font-size="9" text-anchor="middle" fill="#555">40</text><text x="540.7309337797619" y="174" font-size="9" text-anchor="middle" fill="#555">50</text><text x="635.8866443452381" y="174" font-size="9" text-anchor="middle" fill="#555">60</text><text x="731.0423549107143" y="174" font-size="9" text-anchor="middle" fill="#555">70</text><text x="826.1980654761904" y="174" font-size="9" text-anchor="middle" fill="#555">80</text><text x="921.3537760416667" y="174" font-size="9" text-anchor="middle" fill="#555">90</text><text x="1016.509486607143" y="174" font-size="9" text-anchor="middle" fill="#555">100</text><polyline points="76.0,152.8 81.5,146.9 87.0,146.9 92.6,152.8 98.1,152.8 103.6,152.8 109.1,146.9 114.7,146.9 120.2,146.9 125.7,146.9 131.2,146.9 136.8,146.9 142.3,146.9 147.8,146.9 153.3,146.9 158.9,142.7 164.4,142.7 169.9,142.7 175.4,142.7 181.0,142.7 186.5,142.7 192.0,142.7 197.5,139.5 203.0,139.5 208.6,139.5 214.1,139.5 219.6,139.5 225.1,139.5 230.7,136.8 236.2,136.8 241.7,136.8 247.2,136.8 252.8,136.8 258.3,134.6 263.8,134.6 269.3,134.6 274.9,134.6 280.4,132.7 285.9,132.7 291.4,132.7 297.0,130.9 302.5,130.9 308.0,130.9 313.5,129.4 319.0,129.4 324.6,129.4 330.1,128.0 335.6,128.0 341.1,126.8 346.7,126.8 352.2,126.8 357.7,125.6 363.2,125.6 368.8,124.5 374.3,124.5 379.8,123.5 385.3,123.5 390.9,122.6 396.4,121.7 401.9,121.7 407.4,120.8 413.0,120.1 418.5,120.1 424.0,119.3 429.5,118.6 435.0,117.9 440.6,117.9 446.1,117.3 451.6,116.7 457.1,116.1 462.7,115.5 468.2,114.9 473.7,114.4 479.2,113.9 484.8,113.4 490.3,112.9 495.8,112.5 501.3,112.0 506.9,111.2 512.4,110.8 517.9,110.4 523.4,109.6 529.0,109.2 534.5,108.5 540.0,108.2 545.5,107.5 551.0,107.2 556.6,106.6 562.1,106.0 567.6,105.4 573.1,104.9 578.7,104.3 584.2,103.8 589.7,103.3 595.2,102.8 600.8,102.4 606.3,101.7 611.8,101.1 617.3,100.7 622.9,100.1 628.4,99.5 633.9,99.1 639.4,98.6 645.0,97.9 650.5,97.4 656.0,96.9 661.5,96.3 667.0,95.9 672.6,95.3 678.1,94.9 683.6,94.2 689.1,93.7 694.7,93.2 700.2,92.6 705.7,92.1 711.2,91.6 716.8,91.1 722.3,90.5 727.8,90.0 733.3,89.4 738.9,88.9 744.4,88.4 749.9,87.7 755.4,87.3 761.0,86.8 766.5,86.2 772.0,85.6 777.5,85.0 783.0,84.5 788.6,84.0 794.1,83.6 799.6,83.0 805.1,82.6 810.7,82.0 816.2,81.6 821.7,81.0 827.2,80.3 832.8,79.9 838.3,79.2 843.8,78.8 849.3,78.3 854.9,77.7 860.4,77.1 865.9,76.6 871.4,76.0 877.0,75.6 882.5,74.9 888.0,74.5 893.5,73.9 899.0,73.4 904.6,72.9 910.1,72.2 915.6,71.8 921.1,71.2 926.7,70.6 932.2,70.1 937.7,69.7 943.2,69.3 948.8,68.6 954.3,68.0 959.8,67.9 965.3,66.9 970.9,66.3 976.4,65.8 981.9,65.2 987.4,65.0 993.0,64.3 998.5,63.8 1004.0,63.2" fill="none" stroke="#1f77b4" stroke-width="1.3"/><text x="76" y="47" font-size="11" font-weight="bold" fill="#222">1a. Pitch MIX (semitone)</text><text x="13" y="108" font-size="9" fill="#666" transform="rotate(-90 13 108)" text-anchor="middle">note</text><rect x="76" y="206" width="928" height="104" fill="#fafafa" stroke="#ccc"/><line x1="76" y1="310" x2="1004" y2="310" stroke="#eee"/><text x="70" y="313" font-size="9" text-anchor="end" fill="#555">-8.1</text><line x1="76" y1="284" x2="1004" y2="284" stroke="#eee"/><text x="70" y="287" font-size="9" text-anchor="end" fill="#555">-4.1</text><line x1="76" y1="258" x2="1004" y2="258" stroke="#eee"/><text x="70" y="261" font-size="9" text-anchor="end" fill="#555">0.00</text><line x1="76" y1="232" x2="1004" y2="232" stroke="#eee"/><text x="70" y="235" font-size="9" text-anchor="end" fill="#555">4.1</text><line x1="76" y1="206" x2="1004" y2="206" stroke="#eee"/><text x="70" y="209" font-size="9" text-anchor="end" fill="#555">8.1</text><text x="64.95238095238095" y="324" font-size="9" text-anchor="middle" fill="#555">0</text><text x="160.10809151785713" y="324" font-size="9" text-anchor="middle" fill="#555">10</text><text x="255.26380208333333" y="324" font-size="9" text-anchor="middle" fill="#555">20</text><text x="350.41951264880953" y="324" font-size="9" text-anchor="middle" fill="#555">30</text><text x="445.57522321428576" y="324" font-size="9" text-anchor="middle" fill="#555">40</text><text x="540.7309337797619" y="324" font-size="9" text-anchor="middle" fill="#555">50</text><text x="635.8866443452381" y="324" font-size="9" text-anchor="middle" fill="#555">60</text><text x="731.0423549107143" y="324" font-size="9" text-anchor="middle" fill="#555">70</text><text x="826.1980654761904" y="324" font-size="9" text-anchor="middle" fill="#555">80</text><text x="921.3537760416667" y="324" font-size="9" text-anchor="middle" fill="#555">90</text><text x="1016.509486607143" y="324" font-size="9" text-anchor="middle" fill="#555">100</text><line x1="76" y1="258" x2="1004" y2="258" stroke="#bbb" stroke-dasharray="2 2"/><polyline points="76.0,258.0 81.5,213.2 87.0,258.0 92.6,302.8 98.1,258.0 103.6,258.0 109.1,213.2 114.7,258.0 120.2,258.0 125.7,258.0 131.2,258.0 136.8,258.0 142.3,258.0 147.8,258.0 153.3,258.0 158.9,226.2 164.4,258.0 169.9,258.0 175.4,258.0 181.0,258.0 186.5,258.0 192.0,258.0 197.5,233.3 203.0,258.0 208.6,258.0 214.1,258.0 219.6,258.0 225.1,258.0 230.7,237.8 236.2,258.0 241.7,258.0 247.2,258.0 252.8,258.0 258.3,241.0 263.8,258.0 269.3,258.0 274.9,258.0 280.4,243.2 285.9,258.0 291.4,258.0 297.0,245.0 302.5,258.0 308.0,258.0 313.5,246.4 319.0,258.0 324.6,258.0 330.1,247.5 335.6,258.0 341.1,248.4 346.7,258.0 352.2,258.0 357.7,249.2 363.2,258.0 368.8,249.8 374.3,258.0 379.8,250.4 385.3,258.0 390.9,250.9 396.4,251.3 401.9,258.0 407.4,251.7 413.0,252.0 418.5,258.0 424.0,252.3 429.5,252.6 435.0,252.9 440.6,258.0 446.1,253.1 451.6,253.3 457.1,253.5 462.7,253.7 468.2,253.8 473.7,254.0 479.2,254.1 484.8,254.3 490.3,254.4 495.8,254.5 501.3,254.6 506.9,251.5 512.4,254.9 517.9,255.0 523.4,252.2 529.0,255.2 534.5,252.6 540.0,255.4 545.5,253.0 551.0,255.6 556.6,253.3 562.1,253.5 567.6,253.7 573.1,253.8 578.7,254.0 584.2,254.1 589.7,254.3 595.2,254.4 600.8,254.5 606.3,252.9 611.8,253.2 617.3,254.9 622.9,253.5 628.4,253.7 633.9,255.2 639.4,253.9 645.0,252.8 650.5,254.3 656.0,254.4 661.5,253.3 667.0,254.6 672.6,253.7 678.1,254.9 683.6,253.0 689.1,254.1 694.7,254.3 700.2,253.5 705.7,253.7 711.2,254.6 716.8,253.9 722.3,253.3 727.8,254.3 733.3,253.7 738.9,253.8 744.4,254.6 749.9,252.8 755.4,254.9 761.0,253.8 766.5,253.4 772.0,253.6 777.5,253.7 783.0,253.9 788.6,254.0 794.1,255.1 799.6,253.4 805.1,254.9 810.7,254.1 816.2,254.6 821.7,253.1 827.2,253.0 832.8,254.6 838.3,253.3 843.8,254.5 849.3,254.3 854.9,253.8 860.4,253.3 865.9,254.1 871.4,253.7 877.0,254.4 882.5,253.2 888.0,254.4 893.5,253.5 899.0,254.2 904.6,254.5 910.1,252.9 915.6,254.6 921.1,253.7 926.7,253.6 932.2,253.8 937.7,254.9 943.2,255.1 948.8,252.6 954.3,253.2 959.8,257.7 965.3,250.4 970.9,253.7 976.4,253.9 981.9,253.7 987.4,255.9 993.0,252.8 998.5,254.5 1004.0,253.1" fill="none" stroke="#1f77b4" stroke-width="1.3"/><text x="76" y="197" font-size="11" font-weight="bold" fill="#222">1b. Pitch delta per frame (spike = pitch jump)</text><text x="13" y="258" font-size="9" fill="#666" transform="rotate(-90 13 258)" text-anchor="middle">d note</text><rect x="76" y="356" width="928" height="104" fill="#fafafa" stroke="#ccc"/><line x1="76" y1="460" x2="1004" y2="460" stroke="#eee"/><text x="70" y="463" font-size="9" text-anchor="end" fill="#555">-13</text><line x1="76" y1="434" x2="1004" y2="434" stroke="#eee"/><text x="70" y="437" font-size="9" text-anchor="end" fill="#555">-8.6</text><line x1="76" y1="408" x2="1004" y2="408" stroke="#eee"/><text x="70" y="411" font-size="9" text-anchor="end" fill="#555">-3.9</text><line x1="76" y1="382" x2="1004" y2="382" stroke="#eee"/><text x="70" y="385" font-size="9" text-anchor="end" fill="#555">0.73</text><line x1="76" y1="356" x2="1004" y2="356" stroke="#eee"/><text x="70" y="359" font-size="9" text-anchor="end" fill="#555">5.4</text><text x="64.95238095238095" y="474" font-size="9" text-anchor="middle" fill="#555">0</text><text x="160.10809151785713" y="474" font-size="9" text-anchor="middle" fill="#555">10</text><text x="255.26380208333333" y="474" font-size="9" text-anchor="middle" fill="#555">20</text><text x="350.41951264880953" y="474" font-size="9" text-anchor="middle" fill="#555">30</text><text x="445.57522321428576" y="474" font-size="9" text-anchor="middle" fill="#555">40</text><text x="540.7309337797619" y="474" font-size="9" text-anchor="middle" fill="#555">50</text><text x="635.8866443452381" y="474" font-size="9" text-anchor="middle" fill="#555">60</text><text x="731.0423549107143" y="474" font-size="9" text-anchor="middle" fill="#555">70</text><text x="826.1980654761904" y="474" font-size="9" text-anchor="middle" fill="#555">80</text><text x="921.3537760416667" y="474" font-size="9" text-anchor="middle" fill="#555">90</text><text x="1016.509486607143" y="474" font-size="9" text-anchor="middle" fill="#555">100</text><polyline points="76.0,452.8 81.5,418.3 87.0,397.0 92.6,381.9 98.1,371.7 103.6,366.1 109.1,364.6 114.7,363.6 120.2,363.7 125.7,365.0 131.2,363.2 136.8,364.0 142.3,364.5 147.8,363.2 153.3,364.6 158.9,364.6 164.4,364.9 169.9,365.7 175.4,365.3 181.0,364.8 186.5,364.3 192.0,364.5 197.5,364.1 203.0,363.6 208.6,364.4 214.1,363.7 219.6,363.7 225.1,364.5 230.7,363.8 236.2,364.1 241.7,364.2 247.2,363.7 252.8,364.1 258.3,363.9 263.8,364.3 269.3,364.7 274.9,364.5 280.4,364.7 285.9,364.4 291.4,364.2 297.0,363.9 302.5,364.1 308.0,364.2 313.5,364.1 319.0,364.2 324.6,363.9 330.1,363.8 335.6,363.8 341.1,363.9 346.7,364.0 352.2,364.1 357.7,364.1 363.2,364.2 368.8,364.1 374.3,364.2 379.8,364.2 385.3,364.1 390.9,364.2 396.4,364.0 401.9,364.0 407.4,364.1 413.0,364.1 418.5,364.1 424.0,364.1 429.5,364.0 435.0,364.2 440.6,364.2 446.1,364.4 451.6,364.4 457.1,364.2 462.7,364.2 468.2,364.2 473.7,364.2 479.2,364.2 484.8,364.2 490.3,364.3 495.8,364.3 501.3,364.3 506.9,364.4 512.4,364.3 517.9,364.4 523.4,364.4 529.0,364.3 534.5,364.3 540.0,364.4 545.5,364.4 551.0,364.5 556.6,364.5 562.1,364.4 567.6,364.5 573.1,364.5 578.7,364.5 584.2,364.5 589.7,364.5 595.2,364.6 600.8,364.6 606.3,364.7 611.8,364.6 617.3,364.7 622.9,364.7 628.4,364.6 633.9,364.7 639.4,364.7 645.0,364.8 650.5,364.8 656.0,364.8 661.5,364.9 667.0,364.9 672.6,365.0 678.1,365.0 683.6,365.0 689.1,365.0 694.7,365.1 700.2,365.1 705.7,365.2 711.2,365.3 716.8,365.3 722.3,365.4 727.8,365.4 733.3,365.5 738.9,365.5 744.4,365.6 749.9,365.7 755.4,365.8 761.0,365.8 766.5,365.9 772.0,366.0 777.5,366.0 783.0,366.1 788.6,366.2 794.1,366.3 799.6,366.4 805.1,366.5 810.7,366.6 816.2,366.8 821.7,366.9 827.2,367.0 832.8,367.1 838.3,367.3 843.8,367.4 849.3,367.6 854.9,367.8 860.4,368.0 865.9,368.2 871.4,368.4 877.0,368.6 882.5,368.9 888.0,369.2 893.5,369.5 899.0,369.8 904.6,370.2 910.1,370.5 915.6,371.0 921.1,371.4 926.7,371.9 932.2,372.4 937.7,373.0 943.2,373.6 948.8,374.1 954.3,374.8 959.8,375.5 965.3,376.3 970.9,377.3 976.4,378.2 981.9,379.2 987.4,380.2 993.0,381.4 998.5,382.6 1004.0,383.1" fill="none" stroke="#2ca02c" stroke-width="1.3"/><text x="76" y="347" font-size="11" font-weight="bold" fill="#222">2a. Loudness MIX (dB)</text><text x="13" y="408" font-size="9" fill="#666" transform="rotate(-90 13 408)" text-anchor="middle">dB</text><rect x="76" y="506" width="928" height="104" fill="#fafafa" stroke="#ccc"/><line x1="76" y1="610" x2="1004" y2="610" stroke="#eee"/><text x="70" y="613" font-size="9" text-anchor="end" fill="#555">-0.77</text><line x1="76" y1="584" x2="1004" y2="584" stroke="#eee"/><text x="70" y="587" font-size="9" text-anchor="end" fill="#555">1.1</text><line x1="76" y1="558" x2="1004" y2="558" stroke="#eee"/><text x="70" y="561" font-size="9" text-anchor="end" fill="#555">3.0</text><line x1="76" y1="532" x2="1004" y2="532" stroke="#eee"/><text x="70" y="535" font-size="9" text-anchor="end" fill="#555">4.9</text><line x1="76" y1="506" x2="1004" y2="506" stroke="#eee"/><text x="70" y="509" font-size="9" text-anchor="end" fill="#555">6.7</text><text x="64.95238095238095" y="624" font-size="9" text-anchor="middle" fill="#555">0</text><text x="160.10809151785713" y="624" font-size="9" text-anchor="middle" fill="#555">10</text><text x="255.26380208333333" y="624" font-size="9" text-anchor="middle" fill="#555">20</text><text x="350.41951264880953" y="624" font-size="9" text-anchor="middle" fill="#555">30</text><text x="445.57522321428576" y="624" font-size="9" text-anchor="middle" fill="#555">40</text><text x="540.7309337797619" y="624" font-size="9" text-anchor="middle" fill="#555">50</text><text x="635.8866443452381" y="624" font-size="9" text-anchor="middle" fill="#555">60</text><text x="731.0423549107143" y="624" font-size="9" text-anchor="middle" fill="#555">70</text><text x="826.1980654761904" y="624" font-size="9" text-anchor="middle" fill="#555">80</text><text x="921.3537760416667" y="624" font-size="9" text-anchor="middle" fill="#555">90</text><text x="1016.509486607143" y="624" font-size="9" text-anchor="middle" fill="#555">100</text><line x1="76" y1="599.2736708967157" x2="1004" y2="599.2736708967157" stroke="#bbb" stroke-dasharray="2 2"/><polyline points="76.0,599.3 81.5,513.2 87.0,546.0 92.6,561.6 98.1,573.9 103.6,585.4 109.1,595.4 114.7,596.9 120.2,599.3 125.7,602.6 131.2,594.7 136.8,601.3 142.3,600.6 147.8,595.9 153.3,602.8 158.9,599.3 164.4,600.0 169.9,601.2 175.4,598.2 181.0,598.1 186.5,598.1 192.0,599.6 197.5,598.5 203.0,597.9 208.6,601.3 214.1,597.5 219.6,599.4 225.1,601.2 230.7,597.5 236.2,600.1 241.7,599.4 247.2,598.2 252.8,600.2 258.3,598.8 263.8,600.1 269.3,600.4 274.9,598.7 280.4,599.9 285.9,598.3 291.4,599.0 297.0,598.4 302.5,599.8 308.0,599.6 313.5,599.0 319.0,599.4 324.6,598.6 330.1,599.0 335.6,599.3 341.1,599.4 346.7,599.6 352.2,599.6 357.7,599.3 363.2,599.6 368.8,598.9 374.3,599.6 379.8,599.3 385.3,599.1 390.9,599.4 396.4,599.0 401.9,599.1 407.4,599.6 413.0,599.2 418.5,599.4 424.0,599.2 429.5,599.0 435.0,599.9 440.6,599.2 446.1,599.7 451.6,599.3 457.1,599.0 462.7,599.2 468.2,599.3 473.7,599.2 479.2,599.3 484.8,599.2 490.3,599.5 495.8,599.5 501.3,599.1 506.9,599.7 512.4,599.1 517.9,599.4 523.4,599.4 529.0,599.0 534.5,599.3 540.0,599.4 545.5,599.5 551.0,599.3 556.6,599.4 562.1,599.1 567.6,599.4 573.1,599.3 578.7,599.3 584.2,599.3 589.7,599.2 595.2,599.5 600.8,599.3 606.3,599.5 611.8,599.2 617.3,599.4 622.9,599.3 628.4,599.2 633.9,599.5 639.4,599.3 645.0,599.4 650.5,599.3 656.0,599.3 661.5,599.4 667.0,599.4 672.6,599.4 678.1,599.4 683.6,599.3 689.1,599.3 694.7,599.4 700.2,599.4 705.7,599.5 711.2,599.4 716.8,599.4 722.3,599.4 727.8,599.4 733.3,599.4 738.9,599.4 744.4,599.5 749.9,599.4 755.4,599.5 761.0,599.5 766.5,599.4 772.0,599.5 777.5,599.4 783.0,599.5 788.6,599.5 794.1,599.5 799.6,599.5 805.1,599.5 810.7,599.6 816.2,599.6 821.7,599.6 827.2,599.6 832.8,599.6 838.3,599.6 843.8,599.6 849.3,599.7 854.9,599.7 860.4,599.7 865.9,599.8 871.4,599.8 877.0,599.8 882.5,599.9 888.0,600.0 893.5,600.0 899.0,600.1 904.6,600.1 910.1,600.2 915.6,600.3 921.1,600.3 926.7,600.5 932.2,600.6 937.7,600.7 943.2,600.9 948.8,600.5 954.3,601.0 959.8,601.1 965.3,601.2 970.9,601.8 976.4,601.5 981.9,601.7 987.4,602.0 993.0,602.2 998.5,602.4 1004.0,600.4" fill="none" stroke="#2ca02c" stroke-width="1.3"/><text x="76" y="497" font-size="11" font-weight="bold" fill="#222">2b. Loudness delta per frame (spike = volume jump)</text><text x="13" y="558" font-size="9" fill="#666" transform="rotate(-90 13 558)" text-anchor="middle">d dB</text><rect x="76" y="656" width="928" height="104" fill="#fafafa" stroke="#ccc"/><line x1="76" y1="760" x2="1004" y2="760" stroke="#eee"/><text x="70" y="763" font-size="9" text-anchor="end" fill="#555">-744</text><line x1="76" y1="734" x2="1004" y2="734" stroke="#eee"/><text x="70" y="737" font-size="9" text-anchor="end" fill="#555">2056</text><line x1="76" y1="708" x2="1004" y2="708" stroke="#eee"/><text x="70" y="711" font-size="9" text-anchor="end" fill="#555">4857</text><line x1="76" y1="682" x2="1004" y2="682" stroke="#eee"/><text x="70" y="685" font-size="9" text-anchor="end" fill="#555">7657</text><line x1="76" y1="656" x2="1004" y2="656" stroke="#eee"/><text x="70" y="659" font-size="9" text-anchor="end" fill="#555">10457</text><text x="64.95238095238095" y="774" font-size="9" text-anchor="middle" fill="#555">0</text><text x="160.10809151785713" y="774" font-size="9" text-anchor="middle" fill="#555">10</text><text x="255.26380208333333" y="774" font-size="9" text-anchor="middle" fill="#555">20</text><text x="350.41951264880953" y="774" font-size="9" text-anchor="middle" fill="#555">30</text><text x="445.57522321428576" y="774" font-size="9" text-anchor="middle" fill="#555">40</text><text x="540.7309337797619" y="774" font-size="9" text-anchor="middle" fill="#555">50</text><text x="635.8866443452381" y="774" font-size="9" text-anchor="middle" fill="#555">60</text><text x="731.0423549107143" y="774" font-size="9" text-anchor="middle" fill="#555">70</text><text x="826.1980654761904" y="774" font-size="9" text-anchor="middle" fill="#555">80</text><text x="921.3537760416667" y="774" font-size="9" text-anchor="middle" fill="#555">90</text><text x="1016.509486607143" y="774" font-size="9" text-anchor="middle" fill="#555">100</text><polyline points="76.0,752.8 81.5,752.8 87.0,752.8 92.6,752.7 98.1,752.5 103.6,752.4 109.1,752.3 114.7,752.3 120.2,752.2 125.7,752.2 131.2,752.2 136.8,752.1 142.3,752.0 147.8,752.0 153.3,752.0 158.9,752.0 164.4,752.0 169.9,751.9 175.4,751.9 181.0,751.8 186.5,751.7 192.0,751.7 197.5,751.6 203.0,751.5 208.6,751.4 214.1,751.4 219.6,751.3 225.1,751.3 230.7,751.2 236.2,751.1 241.7,751.1 247.2,750.9 252.8,750.9 258.3,750.8 263.8,750.7 269.3,750.6 274.9,750.6 280.4,750.5 285.9,750.3 291.4,750.2 297.0,750.1 302.5,750.0 308.0,749.9 313.5,749.7 319.0,749.7 324.6,749.5 330.1,749.3 335.6,749.2 341.1,749.0 346.7,748.8 352.2,748.7 357.7,748.6 363.2,748.4 368.8,748.3 374.3,748.1 379.8,747.9 385.3,747.8 390.9,747.7 396.4,747.5 401.9,747.1 407.4,747.0 413.0,746.7 418.5,746.4 424.0,746.1 429.5,746.2 435.0,745.9 440.6,745.5 446.1,745.4 451.6,745.2 457.1,744.9 462.7,744.7 468.2,744.4 473.7,743.9 479.2,743.7 484.8,743.5 490.3,743.3 495.8,743.1 501.3,742.4 506.9,742.1 512.4,741.9 517.9,741.6 523.4,741.3 529.0,740.9 534.5,740.5 540.0,740.2 545.5,739.7 551.0,739.2 556.6,738.9 562.1,738.4 567.6,738.1 573.1,737.6 578.7,736.8 584.2,736.5 589.7,736.1 595.2,735.7 600.8,735.2 606.3,734.8 611.8,734.2 617.3,733.6 622.9,733.4 628.4,732.5 633.9,732.0 639.4,731.5 645.0,730.9 650.5,730.2 656.0,729.9 661.5,729.2 667.0,728.5 672.6,727.9 678.1,727.5 683.6,726.8 689.1,725.8 694.7,725.5 700.2,724.9 705.7,724.2 711.2,723.3 716.8,722.8 722.3,722.2 727.8,721.2 733.3,720.7 738.9,719.9 744.4,719.0 749.9,718.4 755.4,717.6 761.0,717.1 766.5,716.5 772.0,715.8 777.5,714.8 783.0,713.7 788.6,713.3 794.1,712.4 799.6,711.8 805.1,710.4 810.7,709.5 816.2,709.0 821.7,707.5 827.2,707.4 832.8,705.8 838.3,706.0 843.8,704.4 849.3,704.2 854.9,702.8 860.4,701.6 865.9,700.8 871.4,699.1 877.0,700.1 882.5,698.3 888.0,696.9 893.5,698.1 899.0,696.3 904.6,695.4 910.1,696.4 915.6,695.6 921.1,693.9 926.7,693.7 932.2,694.0 937.7,692.6 943.2,691.0 948.8,689.2 954.3,688.0 959.8,686.2 965.3,685.1 970.9,682.6 976.4,680.0 981.9,677.3 987.4,674.2 993.0,670.7 998.5,666.8 1004.0,663.2" fill="none" stroke="#9467bd" stroke-width="1.3"/><text x="76" y="647" font-size="11" font-weight="bold" fill="#222">3a. Timbre MIX (centroid Hz)</text><text x="13" y="708" font-size="9" fill="#666" transform="rotate(-90 13 708)" text-anchor="middle">Hz</text><rect x="76" y="806" width="928" height="104" fill="#fafafa" stroke="#ccc"/><line x1="76" y1="910" x2="1004" y2="910" stroke="#eee"/><text x="70" y="913" font-size="9" text-anchor="end" fill="#555">-175</text><line x1="76" y1="884" x2="1004" y2="884" stroke="#eee"/><text x="70" y="887" font-size="9" text-anchor="end" fill="#555">-14</text><line x1="76" y1="858" x2="1004" y2="858" stroke="#eee"/><text x="70" y="861" font-size="9" text-anchor="end" fill="#555">146</text><line x1="76" y1="832" x2="1004" y2="832" stroke="#eee"/><text x="70" y="835" font-size="9" text-anchor="end" fill="#555">307</text><line x1="76" y1="806" x2="1004" y2="806" stroke="#eee"/><text x="70" y="809" font-size="9" text-anchor="end" fill="#555">467</text><text x="64.95238095238095" y="924" font-size="9" text-anchor="middle" fill="#555">0</text><text x="160.10809151785713" y="924" font-size="9" text-anchor="middle" fill="#555">10</text><text x="255.26380208333333" y="924" font-size="9" text-anchor="middle" fill="#555">20</text><text x="350.41951264880953" y="924" font-size="9" text-anchor="middle" fill="#555">30</text><text x="445.57522321428576" y="924" font-size="9" text-anchor="middle" fill="#555">40</text><text x="540.7309337797619" y="924" font-size="9" text-anchor="middle" fill="#555">50</text><text x="635.8866443452381" y="924" font-size="9" text-anchor="middle" fill="#555">60</text><text x="731.0423549107143" y="924" font-size="9" text-anchor="middle" fill="#555">70</text><text x="826.1980654761904" y="924" font-size="9" text-anchor="middle" fill="#555">80</text><text x="921.3537760416667" y="924" font-size="9" text-anchor="middle" fill="#555">90</text><text x="1016.509486607143" y="924" font-size="9" text-anchor="middle" fill="#555">100</text><line x1="76" y1="881.7002907165685" x2="1004" y2="881.7002907165685" stroke="#bbb" stroke-dasharray="2 2"/><polyline points="76.0,881.7 81.5,881.7 87.0,881.7 92.6,879.8 98.1,878.0 103.6,879.2 109.1,881.0 114.7,880.8 120.2,880.9 125.7,881.2 131.2,881.3 136.8,880.5 142.3,880.6 147.8,881.1 153.3,881.3 158.9,882.2 164.4,881.3 169.9,880.5 175.4,881.1 181.0,880.4 186.5,880.5 192.0,880.4 197.5,879.9 203.0,880.7 208.6,880.7 214.1,881.1 219.6,880.2 225.1,880.9 230.7,880.8 236.2,879.3 241.7,881.4 247.2,879.3 252.8,881.0 258.3,879.7 263.8,880.3 269.3,880.8 274.9,880.4 280.4,879.9 285.9,879.2 291.4,879.6 297.0,879.1 302.5,880.0 308.0,880.5 313.5,879.2 319.0,881.2 324.6,877.9 330.1,878.7 335.6,880.1 341.1,877.8 346.7,877.1 352.2,880.3 357.7,880.9 363.2,877.7 368.8,880.3 374.3,878.2 379.8,878.5 385.3,879.2 390.9,879.7 396.4,877.8 401.9,875.8 407.4,879.4 413.0,876.3 418.5,876.4 424.0,877.4 429.5,883.3 435.0,876.3 440.6,875.4 446.1,879.2 451.6,878.7 457.1,875.4 462.7,879.1 468.2,875.7 473.7,873.4 479.2,878.6 484.8,877.5 490.3,879.1 495.8,877.3 501.3,870.1 506.9,877.3 512.4,877.8 517.9,876.1 523.4,875.9 529.0,874.8 534.5,875.2 540.0,875.8 545.5,872.7 551.0,874.4 556.6,876.4 562.1,872.9 567.6,876.2 573.1,872.7 578.7,868.3 584.2,876.1 589.7,874.4 595.2,875.6 600.8,873.0 606.3,874.4 611.8,871.3 617.3,870.4 622.9,878.2 628.4,866.1 633.9,873.6 639.4,872.5 645.0,870.6 650.5,870.7 656.0,875.6 661.5,870.3 667.0,868.8 672.6,871.0 678.1,874.7 683.6,869.1 689.1,865.2 694.7,875.9 700.2,871.1 705.7,869.3 711.2,866.0 716.8,873.4 722.3,870.5 727.8,865.3 733.3,872.8 738.9,867.9 744.4,865.9 749.9,870.6 755.4,868.7 761.0,871.7 766.5,872.7 772.0,868.9 777.5,863.5 783.0,863.9 788.6,874.2 794.1,865.5 799.6,871.9 805.1,857.2 810.7,866.4 816.2,871.9 821.7,856.4 827.2,880.2 832.8,852.9 838.3,885.2 843.8,853.2 849.3,878.4 854.9,858.4 860.4,860.4 865.9,867.8 871.4,850.9 877.0,899.6 882.5,851.0 888.0,856.4 893.5,902.8 899.0,850.9 904.6,865.8 910.1,899.3 915.6,866.7 921.1,853.6 926.7,877.8 932.2,886.2 937.7,857.8 943.2,853.0 948.8,850.0 954.3,861.7 959.8,849.7 965.3,862.4 970.9,838.8 976.4,835.8 981.9,834.1 987.4,828.6 993.0,820.7 998.5,813.2 1004.0,818.5" fill="none" stroke="#9467bd" stroke-width="1.3"/><text x="76" y="797" font-size="11" font-weight="bold" fill="#222">3b. Timbre delta per frame (spike = timbre jump)</text><text x="13" y="858" font-size="9" fill="#666" transform="rotate(-90 13 858)" text-anchor="middle">d Hz</text><text x="510" y="942" font-size="10" text-anchor="middle" fill="#444">CUTOFF (0-100) over sweep</text></svg>